<svg width="43" height="40" viewBox="0 0 43 40" fill="none" xmlns="http://www.w3.org/2000/svg">
<path d="M11.4351 12.2322C11.4351 11.1228 11.4527 10.0062 11.4276 8.89055C11.4148 8.3196 11.6197 7.97463 12.152 7.72375C16.9357 5.46872 21.7041 3.18067 26.4961 0.943826C26.8605 0.773635 27.4417 0.772223 27.8059 0.942061C32.5728 3.16426 37.3159 5.43712 42.0735 7.67926C42.6175 7.93561 42.8743 8.26028 42.872 8.88861C42.8533 14.2751 42.8745 19.6617 42.8321 25.0478C42.8293 25.4152 42.4967 25.9598 42.1703 26.118C37.3581 28.45 32.526 30.7412 27.6788 32.9991C27.3502 33.1523 26.8105 33.0773 26.4569 32.9156C23.8918 31.7428 21.3494 30.5202 18.7995 29.3142C18.51 29.1772 18.2182 29.0455 17.8755 28.8873C17.7026 29.1753 17.5648 29.4298 17.4041 29.6692C15.3092 32.7938 13.2231 35.9246 11.1047 39.0333C10.5875 39.7924 10.1521 39.8136 9.64364 39.1452C6.57649 35.1138 3.69366 30.966 1.56591 26.3378C0.279064 23.5383 0.0221888 20.7245 1.45751 17.9253C3.32785 14.2775 6.33974 12.3929 10.4628 12.3419C10.7273 12.3385 10.9917 12.345 11.2562 12.3433C11.2801 12.3431 11.3035 12.3152 11.4351 12.2322ZM27.856 31.2431C28.0502 31.229 28.1148 31.2412 28.1629 31.2184C32.438 29.1929 36.7162 27.1737 40.9738 25.1122C41.2166 24.9948 41.4215 24.5292 41.4235 24.2243C41.4516 19.5738 41.4433 14.9232 41.4415 10.2724C41.4415 10.1078 41.4208 9.9433 41.4095 9.77364C41.295 9.77364 41.23 9.75475 41.1841 9.77629C36.8813 11.811 32.576 13.8407 28.2893 15.9085C28.0647 16.0167 27.8797 16.4476 27.8747 16.7317C27.8398 18.7916 27.856 20.8523 27.856 22.9128V31.2431ZM10.2344 37.8534C10.6865 37.244 10.9854 36.8526 11.2723 36.4527C13.7574 32.9869 16.2108 29.4934 17.8568 25.5324C18.3319 24.3891 18.7506 23.0989 18.7176 21.8892C18.5713 16.5241 13.6269 12.7882 8.40446 13.9691C3.68836 15.0354 0.554654 20.263 2.48078 24.8096C3.09799 26.2665 3.74433 27.732 4.56915 29.0755C6.36093 31.9938 8.27611 34.8361 10.2344 37.8534ZM26.4371 31.3593V16.8804C26.4371 16.7628 26.4846 16.6092 26.4279 16.5336C26.2228 16.2596 26.033 15.9069 25.7481 15.7697C21.7246 13.8333 17.6868 11.927 13.6511 10.016C13.4226 9.90781 13.1829 9.82396 12.9034 9.71043V12.6512C16.0902 13.6441 18.3078 15.6286 19.5465 18.6931C20.8134 21.8275 19.9806 24.737 18.4916 27.5934C21.1654 28.8606 23.7292 30.0758 26.4371 31.3593ZM40.4809 8.51963C39.2805 7.94232 38.2582 7.44446 37.2303 6.95825C36.1958 6.46886 35.1573 5.61755 34.118 5.61367C33.0802 5.60978 32.034 6.44838 31.001 6.93759C27.6396 8.52969 24.2822 10.131 20.7578 11.8075C22.9295 12.8385 24.9578 13.8095 26.9985 14.7537C27.1424 14.8202 27.3952 14.726 27.5681 14.6442C31.8124 12.6374 36.0527 10.6221 40.4809 8.51963ZM13.8566 8.53357C15.4794 9.30385 16.9472 9.97384 18.3873 10.6991C18.8832 10.9487 19.2785 10.9528 19.7815 10.7099C23.0577 9.12677 26.3501 7.57722 29.6367 6.01549C30.5252 5.59319 31.4119 5.167 32.4206 4.68485C30.8298 3.92782 29.3622 3.2603 27.9261 2.53081C27.3693 2.24798 26.9193 2.27128 26.3647 2.53857C22.4788 4.41174 18.5774 6.25277 14.6819 8.10598C14.451 8.21561 14.2275 8.34079 13.8566 8.53357Z" fill="#8F9F9F"/>
<path d="M35.1462 23.5725C34.9162 23.381 34.5783 23.2357 34.5312 23.0254C34.4752 22.7747 34.5864 22.3007 34.7667 22.2124C36.3677 21.4275 37.9922 20.687 39.6351 19.9941C39.8201 19.9159 40.2592 20.1468 40.4017 20.3562C40.511 20.5167 40.4229 21.0375 40.2779 21.1106C38.6085 21.9511 36.9113 22.7366 35.1462 23.5725Z" fill="#8F9F9F"/>
<path d="M35.0753 26.2185C34.8943 26.0605 34.5822 25.9148 34.5177 25.6963C34.4528 25.4754 34.5561 25.0247 34.7183 24.945C36.3459 24.146 37.9916 23.3808 39.6614 22.6753C39.8394 22.6001 40.4241 22.9555 40.4311 23.1271C40.4433 23.4214 40.2232 23.8775 39.9697 24.0053C38.585 24.7021 37.161 25.3211 35.7486 25.9628C35.5643 26.0467 35.3695 26.1076 35.0753 26.2185Z" fill="#8F9F9F"/>
<path d="M16.043 22.1537C16.055 25.339 13.5312 27.8982 10.3643 27.9125C7.20626 27.9268 4.6315 25.3766 4.60855 22.2114C4.5856 19.0634 7.15401 16.4662 10.3068 16.4493C13.47 16.4323 16.0311 18.9792 16.043 22.1537ZM14.6242 22.15C14.6128 19.7657 12.6552 17.8354 10.2817 17.8677C7.94493 17.8995 6.03805 19.8277 6.02834 22.1691C6.01846 24.5426 7.96877 26.4957 10.3453 26.492C12.7262 26.4883 14.6359 24.5507 14.6242 22.15Z" fill="#8F9F9F"/>
</svg>
