<svg width="50" height="35" viewBox="0 0 50 35" fill="none" xmlns="http://www.w3.org/2000/svg">
<path d="M22.4991 7.60089C21.4926 7.29037 20.4249 7.23313 19.3909 7.43422L16.5576 7.54255C16.5283 7.02792 16.2438 6.56199 15.7993 6.30091L10.0828 2.651C9.89534 2.53007 9.66726 2.48932 9.44957 2.53787C9.23187 2.58642 9.04272 2.72022 8.92445 2.90932L0.124645 16.9923C0.00786773 17.1811 -0.028771 17.4087 0.0228535 17.6245C0.0744778 17.8404 0.210099 18.0268 0.39964 18.1423L6.00785 21.5589C6.27067 21.7218 6.57362 21.8083 6.88283 21.8089C7.06206 21.804 7.23934 21.7703 7.40782 21.7089L8.68279 22.5422C8.30739 23.0193 8.09165 23.6023 8.06613 24.2089C8.04598 24.9981 8.34665 25.7618 8.89945 26.3255C9.31664 26.758 9.85855 27.0493 10.4494 27.1588C10.2154 28.0257 10.3889 28.952 10.9209 29.6754C11.4529 30.3988 12.2854 30.8405 13.1827 30.8754H13.291C13.7306 30.8732 14.1638 30.7706 14.5577 30.5754C14.6777 31.0608 14.9185 31.5079 15.2576 31.8753C16.2737 32.9706 17.9569 33.1114 19.1409 32.2003C19.2728 32.6386 19.5037 33.0406 19.8159 33.3753C20.9174 34.55 22.7613 34.6133 23.9408 33.517L24.8491 32.6837L26.3824 33.6836C27.2376 34.2429 28.3232 34.3138 29.2439 33.8705C30.1646 33.4272 30.7862 32.5344 30.8823 31.517C31.1923 31.6297 31.5191 31.6889 31.8489 31.692C33.4698 31.6875 34.7852 30.3795 34.7989 28.7587C35.6972 28.8257 36.5768 28.4785 37.1873 27.8161C37.7977 27.1537 38.072 26.2487 37.9321 25.3588C38.8841 25.2065 39.6999 24.5949 40.1129 23.7238C40.526 22.8527 40.4833 21.834 39.9988 21.0006L42.682 19.4506C42.8 19.4978 42.9231 19.5314 43.0487 19.5506L43.2904 19.5506C43.651 19.5506 44.0019 19.4337 44.2903 19.2173L49.6652 15.1924C50.0309 14.9193 50.1089 14.403 49.8402 14.0341L39.8404 0.342714C39.709 0.162187 39.5105 0.041995 39.2896 0.00909414C39.0687 -0.0238038 38.8438 0.0333432 38.6655 0.16772L33.1073 4.33429C32.5918 4.72073 32.3452 5.36967 32.4739 6.00092L27.474 6.20092C25.7319 6.28978 24.0319 6.76817 22.4991 7.60089ZM1.98294 17.184L9.87443 4.52596L14.8743 7.73422L13.6827 9.59251L6.88283 20.1339L1.98294 17.184ZM9.72443 24.3005C9.74555 23.9816 9.88881 23.6831 10.1244 23.4672L10.5411 23.0755L12.0827 21.6422C12.3092 21.4311 12.6064 21.3122 12.916 21.3089H12.9577C13.3031 21.3218 13.6282 21.4754 13.8577 21.7339C14.3293 22.2379 14.3032 23.0288 13.7993 23.5005L11.8577 25.2672C11.6102 25.4974 11.2801 25.6175 10.9425 25.6003C10.605 25.583 10.2888 25.4298 10.0661 25.1755C9.83885 24.9323 9.71875 24.6081 9.73276 24.2755L9.72443 24.3005ZM13.2077 29.3004C12.8614 29.2789 12.5391 29.1162 12.316 28.8504C11.8444 28.3464 11.8705 27.5555 12.3744 27.0838L13.2744 26.2505L14.941 24.6672L16.7659 23.0005C16.992 22.7887 17.2895 22.6697 17.5993 22.6672C17.9613 22.6704 18.3056 22.8244 18.5492 23.0922C19.0209 23.5962 18.9948 24.3871 18.4909 24.8588L16.9326 26.3171L15.266 27.8421L14.041 28.9837C13.8046 29.1644 13.5134 29.2585 13.216 29.2504L13.2077 29.3004ZM16.4076 30.8004C15.9359 30.2964 15.9621 29.5055 16.466 29.0337L19.0492 26.6255L20.6492 25.1338C20.8757 24.9227 21.1729 24.8038 21.4825 24.8005H21.5242C21.8696 24.8134 22.1947 24.967 22.4242 25.2255C22.8958 25.7295 22.8697 26.5204 22.3658 26.9921L20.3075 28.8504L19.8992 29.2337L18.2326 30.8004C17.9885 31.0415 17.6566 31.1725 17.3136 31.1631C16.9706 31.1536 16.6464 31.0046 16.416 30.7504L16.4076 30.8004ZM20.9659 32.3087C20.7326 32.0645 20.608 31.7363 20.6206 31.3988C20.6331 31.0613 20.7817 30.7432 21.0325 30.517L21.4408 30.1337L22.3325 29.3004C22.559 29.0893 22.8562 28.9704 23.1658 28.9671L23.2075 28.9671C23.5529 28.98 23.878 29.1335 24.1074 29.3921C24.5791 29.896 24.553 30.6869 24.0491 31.1587L22.7741 32.3503C22.5253 32.581 22.1937 32.7014 21.8548 32.6841C21.5159 32.6668 21.1984 32.5134 20.9742 32.2587L20.9659 32.3087ZM38.5321 23.2255C38.1682 23.773 37.4528 23.9626 36.8655 23.6672C36.7686 23.5844 36.6655 23.5092 36.5572 23.4422L32.3323 20.7173C32.2499 20.6607 32.1602 20.6159 32.0656 20.5839C31.7044 20.4807 31.3187 20.632 31.124 20.9533C30.9293 21.2746 30.9736 21.6864 31.2323 21.9589C31.3684 22.0489 31.5136 22.1244 31.6656 22.1839L35.8322 24.9422H35.8822C36.2986 25.3689 36.361 26.0282 36.0322 26.5255C35.6365 27.0886 34.8739 27.2521 34.2822 26.9005L33.7322 26.5505C33.6353 26.4627 33.5323 26.3819 33.4239 26.3088L32.3323 25.6005L29.8323 23.9755C29.5122 23.7772 29.0989 23.8182 28.824 24.0755C28.7916 24.0982 28.761 24.1232 28.7323 24.1505C28.7105 24.1824 28.691 24.2158 28.674 24.2505C28.6372 24.3024 28.6064 24.3583 28.5824 24.4172C28.5773 24.4698 28.5773 24.5229 28.5824 24.5755C28.551 24.6588 28.551 24.7506 28.5824 24.8338C28.5768 24.8893 28.5768 24.9451 28.5824 25.0005C28.6045 25.0385 28.6295 25.0748 28.6574 25.1088C28.6852 25.1623 28.7187 25.2126 28.7573 25.2588C28.879 25.3759 29.0132 25.4793 29.1573 25.5672L32.7239 27.8754C33.1447 28.2959 33.211 28.9546 32.8823 29.4504C32.4911 30.025 31.7188 30.1933 31.124 29.8337L30.0406 29.1254H29.949C29.8177 29.0017 29.6754 28.8901 29.524 28.7921L27.6407 27.5838C27.3906 27.4036 27.0615 27.3762 26.785 27.5126C26.5086 27.6489 26.33 27.9267 26.3207 28.2348C26.3114 28.5429 26.473 28.831 26.7407 28.9837L28.624 30.1921C29.2142 30.5726 29.3856 31.3587 29.0073 31.9503C28.6089 32.514 27.846 32.6803 27.249 32.3337L25.8657 31.442C26.3499 30.3545 26.133 29.0826 25.3158 28.2171C24.9775 27.8578 24.5529 27.591 24.0824 27.4421C24.3085 27.0445 24.437 26.599 24.4574 26.1421C24.4968 25.1652 24.0469 24.2328 23.2575 23.6558C22.4681 23.0788 21.4431 22.9331 20.5242 23.2672C20.4108 22.7428 20.1574 22.259 19.7909 21.8672C18.7198 20.7277 16.9405 20.6358 15.7576 21.6589C15.6261 21.2272 15.3982 20.8311 15.091 20.5006C14.563 19.9344 13.8316 19.6013 13.0579 19.5747C12.2842 19.5481 11.5316 19.8303 10.9661 20.3589L9.89943 21.3506L8.62446 20.5173L14.7077 11.0591L15.8826 9.23418L19.4992 9.10085H19.6409L19.9492 9.05919L16.8576 10.8425C15.2468 11.7767 14.6984 13.8399 15.6326 15.4507C16.5669 17.0615 18.6301 17.6099 20.2409 16.6757L25.3574 13.4758C26.1283 12.9907 27.1253 13.0651 27.8157 13.6591L31.7573 16.9923C32.2989 17.4507 32.8156 17.8673 33.3489 18.259C34.0406 18.7756 34.7489 19.2673 35.4489 19.709L38.1071 21.3756H38.1655C38.4613 21.5583 38.669 21.8545 38.7399 22.1949C38.8109 22.5353 38.7387 22.8899 38.5405 23.1755L38.5321 23.2255ZM39.0071 2.07601L48.0069 14.3591L43.2904 17.8923L41.3737 15.3507L34.1656 5.67593L39.0071 2.07601ZM33.4989 7.69255L37.9738 13.6674L41.4321 18.2923L38.7155 19.8589L36.3405 18.2673C35.6739 17.8423 34.9989 17.384 34.3406 16.8923C33.8406 16.5174 33.3489 16.1257 32.8322 15.6924L28.8907 12.3591C27.646 11.2936 25.8528 11.1619 24.4658 12.0341L19.3742 15.2174C18.5642 15.6776 17.5345 15.3941 17.0743 14.5841C16.614 13.7741 16.8976 12.7443 17.7076 12.2841L23.0075 9.22585C24.4077 8.41667 25.9832 7.95916 27.599 7.89255L33.4989 7.69255Z" fill="white"/>
<circle cx="6.11792" cy="16.2625" r="1.74195" fill="white"/>
</svg>
