<svg width="44" height="45" viewBox="0 0 44 45" fill="none" xmlns="http://www.w3.org/2000/svg">
<path d="M42.5807 35.7287V29.2628C42.5807 28.3388 41.9852 27.5581 41.1613 27.2643V26.4241C41.1613 25.2503 40.2061 24.295 39.0323 24.295H31.0952C30.8014 23.4711 30.0208 22.8757 29.0968 22.8757V13.9955C29.0968 12.2142 28.1359 10.5607 26.5881 9.67924L12.9843 1.92885C12.3668 0.879951 11.2385 0.166016 9.93548 0.166016C7.98742 0.166016 6.40271 1.74576 6.38923 3.69098H6.3871L5.698 24.3646C4.07071 24.6868 2.83871 26.1232 2.83871 27.8434C2.83871 28.6063 3.08568 29.3089 3.49729 29.8887L1.47826 32.2434C0.525161 33.3555 0 34.7742 0 36.2389C0 37.8797 0.63871 39.4211 1.79832 40.5807L3.92806 42.7105C4.86626 43.6487 6.11387 44.166 7.44097 44.166H12.7742H13.4839H14.9032V42.7467H13.4839V38.8576L11.0461 36.9074C10.3059 36.3156 9.8411 35.4711 9.73606 34.5286L9.22723 29.9491C9.66652 29.3579 9.93548 28.634 9.93548 27.8434C9.93548 26.7434 9.42168 25.7712 8.63323 25.1197L11.9325 6.64395C12.0574 6.55808 12.1688 6.45589 12.2824 6.35511L19.5637 13.6364C19.3139 14.0587 19.1613 14.5441 19.1613 15.0692C19.1613 16.3878 20.0697 17.49 21.2903 17.8072V22.8757H21.0348C20.0236 22.8757 19.145 23.5953 18.947 24.5867L17.0465 34.0914L17.0365 35.7244C16.1572 36.6207 15.6129 37.8463 15.6129 39.1983C15.6129 41.9369 17.8413 44.166 20.5806 44.166H39.0323C41.7716 44.166 44 41.9369 44 39.1983C44 37.8485 43.4571 36.6243 42.5807 35.7287ZM6.3871 25.7144C7.5609 25.7144 8.51613 26.6696 8.51613 27.8434C8.51613 29.0172 7.5609 29.9725 6.3871 29.9725C5.21329 29.9725 4.25806 29.0172 4.25806 27.8434C4.25806 26.6696 5.21329 25.7144 6.3871 25.7144ZM10.1597 38.0159L12.0645 39.5389V39.908H10.6452V41.3273H12.0645V42.7467H7.44097C6.49284 42.7467 5.60148 42.3769 4.93155 41.707L2.80181 39.5772C1.91045 38.6859 1.41935 37.5 1.41935 36.2389C1.41935 35.1127 1.82316 34.0219 2.55626 33.1667L4.53697 30.8567C5.07703 31.1896 5.70723 31.3918 6.3871 31.3918C6.93852 31.3918 7.45374 31.2549 7.92 31.0292L8.32594 34.6847C8.47213 36.004 9.12361 37.1871 10.1597 38.0159ZM7.31465 24.4334C7.24794 24.415 7.18619 24.3866 7.11877 24.3724L7.71561 6.45944C8.32523 6.95408 9.09097 7.26279 9.93548 7.26279C10.0909 7.26279 10.2385 7.23653 10.389 7.21666L7.31465 24.4334ZM9.93548 5.84344C8.76168 5.84344 7.80645 4.88821 7.80645 3.7144C7.80645 2.5406 8.76168 1.58537 9.93548 1.58537C11.1093 1.58537 12.0645 2.5406 12.0645 3.7144C12.0645 4.88821 11.1093 5.84344 9.93548 5.84344ZM31.2258 28.5531H32.6452V27.1338H31.2258V25.7144H39.0323C39.4233 25.7144 39.7419 26.0323 39.7419 26.4241V27.1338H34.0645V28.5531H40.4516C40.8426 28.5531 41.1613 28.871 41.1613 29.2628V34.7167C40.5148 34.4087 39.7952 34.2305 39.0323 34.2305H31.2258V28.5531ZM13.1425 5.20827C13.3384 4.78885 13.4534 4.32827 13.4711 3.84002L25.8855 10.9127C26.9912 11.5421 27.6774 12.7238 27.6774 13.9955V22.8757H22.7097V17.8072C23.9303 17.49 24.8387 16.3878 24.8387 15.0692C24.8387 13.5037 23.5655 12.2305 22 12.2305C21.4748 12.2305 20.9894 12.3831 20.5672 12.6329L13.1425 5.20827ZM20.5806 15.0692C20.5806 14.2865 21.2172 13.6499 22 13.6499C22.7828 13.6499 23.4194 14.2865 23.4194 15.0692C23.4194 15.852 22.7828 16.4886 22 16.4886C21.2172 16.4886 20.5806 15.852 20.5806 15.0692ZM18.4516 34.3008L20.3386 24.8656C20.4046 24.5349 20.6977 24.295 21.0348 24.295H29.0968C29.4878 24.295 29.8065 24.613 29.8065 25.0047V34.2305H20.5806C19.8177 34.2305 19.0981 34.4087 18.4516 34.7167V34.3008ZM39.0323 42.7467H20.5806C18.6241 42.7467 17.0323 41.1549 17.0323 39.1983C17.0323 37.2417 18.6241 35.6499 20.5806 35.6499H39.0323C40.9888 35.6499 42.5807 37.2417 42.5807 39.1983C42.5807 41.1549 40.9888 42.7467 39.0323 42.7467Z" fill="#8F9F9F"/>
<path d="M38.6152 36.7617C37.8074 36.7617 37.0898 37.1266 36.5958 37.692C36.1017 37.1266 35.3841 36.7617 34.5764 36.7617C33.7686 36.7617 33.0511 37.1266 32.557 37.692C32.0629 37.1266 31.3454 36.7617 30.5376 36.7617C29.7299 36.7617 29.0123 37.1266 28.5182 37.692C28.0242 37.1266 27.3066 36.7617 26.4989 36.7617C25.6911 36.7617 24.9736 37.1266 24.4795 37.692C23.9854 37.1266 23.2679 36.7617 22.4601 36.7617C20.9752 36.7617 19.7676 37.9693 19.7676 39.4542C19.7676 40.9392 20.9752 42.1469 22.4601 42.1469C23.2679 42.1469 23.9854 41.782 24.4795 41.2165C24.9736 41.782 25.6911 42.1469 26.4989 42.1469C27.3066 42.1469 28.0242 41.782 28.5182 41.2165C29.0123 41.782 29.7299 42.1469 30.5376 42.1469C31.3454 42.1469 32.0629 41.782 32.557 41.2165C33.0511 41.782 33.7686 42.1469 34.5764 42.1469C35.3841 42.1469 36.1017 41.782 36.5958 41.2165C37.0898 41.782 37.8074 42.1469 38.6152 42.1469C40.1001 42.1469 41.3077 40.9392 41.3077 39.4542C41.3077 37.9693 40.1001 36.7617 38.6152 36.7617ZM22.4601 40.8005C21.7177 40.8005 21.1138 40.1967 21.1138 39.4542C21.1138 38.7118 21.7177 38.108 22.4601 38.108C23.2026 38.108 23.8063 38.7118 23.8063 39.4542C23.8063 40.1967 23.2026 40.8005 22.4601 40.8005ZM26.4989 40.8005C25.7564 40.8005 25.1526 40.1967 25.1526 39.4542C25.1526 38.7118 25.7564 38.108 26.4989 38.108C27.2413 38.108 27.8451 38.7118 27.8451 39.4542C27.8451 40.1967 27.2413 40.8005 26.4989 40.8005ZM30.5376 40.8005C29.7952 40.8005 29.1914 40.1967 29.1914 39.4542C29.1914 38.7118 29.7952 38.108 30.5376 38.108C31.2801 38.108 31.8839 38.7118 31.8839 39.4542C31.8839 40.1967 31.2801 40.8005 30.5376 40.8005ZM34.5764 40.8005C33.8339 40.8005 33.2301 40.1967 33.2301 39.4542C33.2301 38.7118 33.8339 38.108 34.5764 38.108C35.3189 38.108 35.9227 38.7118 35.9227 39.4542C35.9227 40.1967 35.3189 40.8005 34.5764 40.8005ZM38.6152 40.8005C37.8727 40.8005 37.2689 40.1967 37.2689 39.4542C37.2689 38.7118 37.8727 38.108 38.6152 38.108C39.3576 38.108 39.9614 38.7118 39.9614 39.4542C39.9614 40.1967 39.3576 40.8005 38.6152 40.8005Z" fill="#8F9F9F"/>
<path d="M28.9125 25.9092H21.6292L20.8477 29.816L20.835 31.2942H28.9125V25.9092ZM27.5663 29.948H22.1947L22.7332 27.2555H27.5663V29.948Z" fill="#8F9F9F"/>
<rect x="37.5107" y="29.9629" width="2.47286" height="1.23643" fill="#8F9F9F"/>
<rect x="33.3271" y="29.9629" width="1.85465" height="1.23643" fill="#8F9F9F"/>
</svg>
