<svg width="139" height="51" viewBox="0 0 139 51" fill="none" xmlns="http://www.w3.org/2000/svg">
<rect x="1.1748" y="49.0811" width="50.1113" height="1" fill="#000"/>
<rect x="1.53613" width="50.111" height="1" fill="#000"/>
<rect x="50.8271" width="1" height="49.9814" fill="#000"/>
<rect x="0.963867" width="1" height="49.9814" fill="#000"/>
<rect x="8.39844" y="4.79102" width="36.026" height="1" fill="#000"/>
<rect x="8.39844" y="6.5918" width="36.026" height="1" fill="#000"/>
<rect x="8.39844" y="8.39355" width="36.026" height="1" fill="#000"/>
<rect x="8.39844" y="10.168" width="36.026" height="1" fill="#000"/>
<rect x="8.39844" y="11.9648" width="36.026" height="1" fill="#000"/>
<rect x="8.39844" y="13.7617" width="36.026" height="1" fill="#000"/>
<rect x="8.39844" y="15.5576" width="36.026" height="1" fill="#000"/>
<rect x="8.39746" y="19.1504" width="23.4171" height="1" fill="#000"/>
<rect x="8.39746" y="20.9473" width="23.4171" height="1" fill="#000"/>
<rect x="8.39746" y="22.7441" width="23.4171" height="1" fill="#000"/>
<rect x="8.39746" y="24.541" width="23.4171" height="1" fill="#000"/>
<rect x="8.39746" y="26.3369" width="23.4171" height="1" fill="#000"/>
<rect x="8.39746" y="28.1338" width="23.4171" height="1" fill="#000"/>
<rect x="8.39746" y="29.9307" width="23.4171" height="1" fill="#000"/>
<rect x="8.39746" y="33.5234" width="11.7086" height="1" fill="#000"/>
<rect x="8.39746" y="35.3193" width="11.7086" height="1" fill="#000"/>
<rect x="8.39746" y="37.1162" width="11.7086" height="1" fill="#000"/>
<rect x="8.39746" y="38.9131" width="11.7086" height="1" fill="#000"/>
<rect x="8.39746" y="40.6875" width="11.7086" height="1" fill="#000"/>
<rect x="8.39746" y="42.4893" width="11.7086" height="1" fill="#000"/>
<rect x="8.39746" y="44.29" width="11.7086" height="1" fill="#000"/>
<path d="M59.6686 38.9548H58.8047V40.3857H57.5029V35.6094H59.9264C61.6345 35.6094 61.9243 36.3574 61.9243 37.2528C61.9243 37.8463 61.7763 38.4777 61.0029 38.7805L61.8728 40.3857H60.442L59.6686 38.9548ZM59.8814 37.8463C60.3969 37.8463 60.5775 37.7432 60.5775 37.3046C60.5775 36.8471 60.4094 36.744 59.875 36.744H58.8047V37.8463H59.8814Z" fill="#000"/>
<path d="M64.5703 35.6094H68.3729V36.815H65.9043V37.3949H68.3084V38.5618H65.9043V39.2317H68.3986V40.3859H64.5703V35.6094Z" fill="#000"/>
<path d="M71.0752 35.6094H72.506L74.3687 38.1362V35.6094H75.6449V40.3859H74.4138L72.3514 37.5947V40.3859H71.0752V35.6094Z" fill="#000"/>
<path d="M79.6374 36.815H78.0518V35.6094H82.5635V36.815H80.9782V40.3856H79.6374V36.815Z" fill="#000"/>
<path d="M87.8184 39.7914L88.4887 38.8312C88.9655 39.16 89.5708 39.3531 90.2093 39.3531C91.1183 39.3531 91.1569 39.2244 91.1569 38.96C91.1569 38.7218 90.8411 38.6638 90.1643 38.5797C88.7652 38.4059 88.1214 38.1351 88.1214 37.0587C88.1214 35.9179 88.7913 35.5312 90.2411 35.5312C91.3304 35.5312 91.9557 35.7896 92.317 36.021L91.5951 37.0587C91.3179 36.872 90.7248 36.6913 90.2283 36.6913C89.5325 36.6913 89.4489 36.7944 89.4489 37.0269C89.4489 37.297 89.7904 37.3359 90.5059 37.4265C91.6982 37.5807 92.4776 37.7935 92.4776 38.8956C92.4776 39.869 91.9883 40.4553 90.2479 40.4553C89.1841 40.4553 88.3334 40.1913 87.8184 39.7914Z" fill="#000"/>
<path d="M94.6836 37.9935C94.6836 36.1566 95.76 35.5312 97.2743 35.5312C98.7891 35.5312 99.872 36.1566 99.872 37.9935C99.872 39.8364 98.7891 40.4617 97.2743 40.4617C95.76 40.4617 94.6836 39.8364 94.6836 37.9935ZM98.5184 38.0193C98.5184 37.278 98.2669 36.7562 97.2743 36.7562C96.2823 36.7562 96.0304 37.278 96.0304 38.0193C96.0304 38.76 96.2823 39.2888 97.2743 39.2888C98.2669 39.2888 98.5184 38.76 98.5184 38.0193Z" fill="#000"/>
<path d="M102.415 35.6094H103.749V39.2317H105.998V40.3859H102.415V35.6094Z" fill="#000"/>
<path d="M108.303 38.5093V35.6094H109.643V38.3287C109.643 38.9801 109.772 39.3021 110.617 39.3021C111.448 39.3021 111.589 39.0119 111.589 38.3287V35.6094H112.885V38.5093C112.885 39.4055 112.776 40.4819 110.597 40.4819C108.419 40.4819 108.303 39.4055 108.303 38.5093Z" fill="#000"/>
<path d="M116.788 36.815H115.202V35.6094H119.714V36.815H118.129V40.3856H116.788V36.815Z" fill="#000"/>
<rect x="122.21" y="35.6094" width="1.33412" height="4.7765" fill="#000"/>
<path d="M126.181 37.9935C126.181 36.1566 127.257 35.5312 128.771 35.5312C130.286 35.5312 131.369 36.1566 131.369 37.9935C131.369 39.8364 130.286 40.4617 128.771 40.4617C127.257 40.4617 126.181 39.8364 126.181 37.9935ZM130.015 38.0193C130.015 37.278 129.764 36.7562 128.771 36.7562C127.779 36.7562 127.527 37.278 127.527 38.0193C127.527 38.76 127.779 39.2888 128.771 39.2888C129.764 39.2888 130.015 38.76 130.015 38.0193Z" fill="#000"/>
<path d="M133.93 35.6094H135.36L137.223 38.1362V35.6094H138.499V40.3859H137.268L135.206 37.5947V40.3859H133.93V35.6094Z" fill="#000"/>
<path d="M62.2897 32.6327H57.6719V28.0148V23.366V18.7481V16.0467V14.0988V9.48145H62.2897H71.5565V14.0988H62.2897V18.7481H69.2634V23.366H62.2897V28.0148V32.6327Z" fill="#000"/>
<path d="M86.8299 11.7748V30.3084C86.8299 30.9579 86.6102 31.502 86.1703 31.942C85.7092 32.4028 85.1651 32.6328 84.5369 32.6328H75.2701C74.6205 32.6328 74.0764 32.4028 73.6364 31.942C73.1757 31.502 72.9453 30.9579 72.9453 30.3084V23.3345V18.5597V11.7748C72.9453 11.1463 73.1757 10.6019 73.6364 10.1411C74.0764 9.70151 74.6205 9.48145 75.2701 9.48145H84.5369C85.1651 9.48145 85.7092 9.70151 86.1703 10.1411C86.6102 10.6019 86.8299 11.1463 86.8299 11.7748ZM77.5631 28.015H82.2124V27.1042V14.0993H77.5631V21.0416V28.015Z" fill="#000"/>
<path d="M99.8089 21.0421C100.437 21.0421 100.982 21.2729 101.443 21.7333C101.882 22.1729 102.102 22.7181 102.102 23.3667V32.6334H97.4841V23.3667H92.8352V32.6334H88.2178V23.3667V18.7488V14.8851V9.48242H92.8352H99.8089C100.437 9.48242 100.982 9.70209 101.443 10.1417C101.882 10.6028 102.102 11.1469 102.102 11.7755V18.7488C102.102 19.3773 101.882 19.9218 101.443 20.3826C100.982 20.8225 100.437 21.0421 99.8089 21.0421ZM97.4841 18.7488V17.9325V14.0999H92.8352V18.7488H97.4841Z" fill="#000"/>
<path d="M117.375 14.0998H112.757V32.6339H108.108V14.0998H103.49V11.2097V9.48242H117.375V14.0998Z" fill="#000"/>
<path d="M118.746 9.48145H123.364V26.8528V32.6327H118.746V23.9623V9.48145Z" fill="#000"/>
<path d="M134.063 16.4247V14.0999H129.414V18.7488H136.388C137.016 18.7488 137.56 18.9688 138.021 19.4088C138.461 19.8695 138.681 20.4137 138.681 21.0421V30.309C138.681 30.9582 138.461 31.5027 138.021 31.9423C137.56 32.4034 137.016 32.6338 136.388 32.6338H127.121C126.472 32.6338 125.927 32.4034 125.488 31.9423C125.027 31.5027 124.797 30.9582 124.797 30.309V25.6911H129.414V28.0156H134.063V23.3667H127.121C126.472 23.3667 125.927 23.147 125.488 22.707C125.027 22.2467 124.797 21.6914 124.797 21.0421V17.1785V11.7755C124.797 11.1469 125.027 10.6028 125.488 10.1421C125.927 9.70209 126.472 9.48242 127.121 9.48242H136.388C137.016 9.48242 137.56 9.70209 138.021 10.1421C138.461 10.6028 138.681 11.1469 138.681 11.7755V16.4247H134.063Z" fill="#000"/>
</svg>
