<svg width="600" height="688" viewBox="0 0 600 688" fill="none" xmlns="http://www.w3.org/2000/svg">
<mask id="mask0_1_1508" style="mask-type:alpha" maskUnits="userSpaceOnUse" x="0" y="0" width="596" height="688">
<path d="M0.5 0.5H595.5V687.5H0.5V0.5Z" fill="white" stroke="#707070"/>
</mask>
<g mask="url(#mask0_1_1508)">
<path d="M388.646 513.804C389.925 504.511 376.811 496.867 366.956 496.072C362.257 495.694 357.375 496.412 352.923 494.861C343.277 491.499 339.424 479.037 330.012 475.067C322.976 472.099 314.875 474.741 308.053 478.175C301.232 481.608 294.49 485.928 286.869 486.417C280.239 486.841 273.041 484.382 267.241 487.621C262.919 490.034 260.655 495.014 256.671 497.952C252.774 500.826 247.69 501.435 242.854 501.698C238.019 501.962 233.013 502.01 228.61 504.026C224.207 506.042 220.564 510.698 221.479 515.453L388.646 513.804Z" fill="#434B51"/>
<rect x="415.713" y="40.6445" width="35.413" height="113.97" fill="#434B51"/>
<rect x="421.923" y="53.9395" width="5.04199" height="12.709" fill="#303940"/>
<rect x="431.305" y="53.9395" width="5.04199" height="12.709" fill="#303940"/>
<rect x="440.686" y="53.9395" width="5.04199" height="12.709" fill="#303940"/>
<rect x="421.923" y="70.6348" width="5.04199" height="12.709" fill="#303940"/>
<rect x="431.305" y="70.6348" width="5.04199" height="12.709" fill="#303940"/>
<rect x="440.686" y="70.6348" width="5.04199" height="12.709" fill="#303940"/>
<rect x="421.923" y="87.3311" width="5.04199" height="12.709" fill="#303940"/>
<rect x="431.305" y="87.3311" width="5.04199" height="12.709" fill="#303940"/>
<rect x="440.686" y="87.3311" width="5.04199" height="12.709" fill="#303940"/>
<rect x="421.923" y="104.027" width="5.04199" height="12.709" fill="#303940"/>
<rect x="431.305" y="104.027" width="5.04199" height="12.709" fill="#303940"/>
<rect x="440.686" y="104.027" width="5.04199" height="12.709" fill="#303940"/>
<rect x="421.923" y="120.747" width="5.04199" height="12.709" fill="#303940"/>
<rect x="431.305" y="120.747" width="5.04199" height="12.709" fill="#303940"/>
<rect x="440.686" y="120.747" width="5.04199" height="12.709" fill="#303940"/>
<rect x="341.268" y="21.9443" width="35.413" height="132.671" fill="#434B51"/>
<rect x="347.418" y="35.7832" width="23.926" height="5.04199" fill="#303940"/>
<rect x="347.418" y="44.9531" width="23.926" height="5.04199" fill="#303940"/>
<rect x="347.418" y="54.1221" width="23.926" height="5.04199" fill="#303940"/>
<rect x="347.418" y="63.291" width="23.926" height="5.04199" fill="#303940"/>
<rect x="347.418" y="72.46" width="23.926" height="5.04199" fill="#303940"/>
<rect x="347.418" y="81.6289" width="23.926" height="5.04199" fill="#303940"/>
<rect x="347.418" y="90.7979" width="23.926" height="5.04199" fill="#303940"/>
<rect x="347.418" y="99.9668" width="23.926" height="5.04199" fill="#303940"/>
<rect x="347.418" y="109.136" width="23.926" height="5.04199" fill="#303940"/>
<rect x="347.418" y="118.305" width="23.926" height="5.04199" fill="#303940"/>
<path d="M482.757 154.598H454.568V93.77L482.757 82.5039V154.598Z" fill="#434B51"/>
<rect x="459.316" y="101.337" width="7.776" height="4.60498" fill="#303940"/>
<rect x="470.897" y="101.337" width="7.776" height="4.60498" fill="#303940"/>
<rect x="459.316" y="109.944" width="7.776" height="4.60498" fill="#303940"/>
<rect x="470.897" y="109.944" width="7.776" height="4.60498" fill="#303940"/>
<rect x="459.41" y="118.551" width="7.776" height="4.60498" fill="#303940"/>
<rect x="470.991" y="118.551" width="7.77499" height="4.60498" fill="#303940"/>
<rect x="459.41" y="127.158" width="7.776" height="4.60602" fill="#303940"/>
<rect x="470.991" y="127.158" width="7.77499" height="4.60602" fill="#303940"/>
<rect x="459.41" y="135.765" width="7.776" height="4.60498" fill="#303940"/>
<rect x="470.991" y="135.765" width="7.77499" height="4.60498" fill="#303940"/>
<rect x="459.41" y="144.372" width="7.776" height="4.60498" fill="#303940"/>
<rect x="470.991" y="144.372" width="7.77499" height="4.60498" fill="#303940"/>
<path d="M410.292 154.598H382.103V64.1051L410.292 55.9111V154.598Z" fill="#434B51"/>
<rect x="386.518" y="70.5215" width="7.776" height="4.83899" fill="#303940"/>
<rect x="398.099" y="70.5215" width="7.776" height="4.83899" fill="#303940"/>
<rect x="386.518" y="79.5664" width="7.776" height="4.83899" fill="#303940"/>
<rect x="398.099" y="79.5664" width="7.776" height="4.83899" fill="#303940"/>
<rect x="386.518" y="88.6104" width="7.776" height="4.83899" fill="#303940"/>
<rect x="398.099" y="88.6104" width="7.776" height="4.83899" fill="#303940"/>
<rect x="386.518" y="97.6543" width="7.776" height="4.83899" fill="#303940"/>
<rect x="398.099" y="97.6543" width="7.776" height="4.83899" fill="#303940"/>
<rect x="386.518" y="106.698" width="7.776" height="4.83899" fill="#303940"/>
<rect x="398.099" y="106.698" width="7.776" height="4.83899" fill="#303940"/>
<rect x="386.612" y="115.742" width="7.776" height="4.83899" fill="#303940"/>
<rect x="398.194" y="115.742" width="7.77499" height="4.83899" fill="#303940"/>
<rect x="386.612" y="124.786" width="7.776" height="4.83899" fill="#303940"/>
<rect x="398.194" y="124.786" width="7.77499" height="4.83899" fill="#303940"/>
<rect x="386.612" y="133.83" width="7.776" height="4.83899" fill="#303940"/>
<rect x="398.194" y="133.83" width="7.77499" height="4.83899" fill="#303940"/>
<rect x="386.612" y="142.874" width="7.776" height="4.83899" fill="#303940"/>
<rect x="398.194" y="142.874" width="7.77499" height="4.83899" fill="#303940"/>
<path d="M358.069 52.7027C358.418 50.1707 354.843 48.0867 352.157 47.8707C350.876 47.7677 349.545 47.9637 348.332 47.5407C345.703 46.6247 344.653 43.2267 342.087 42.1457C340.169 41.3367 337.961 42.0567 336.101 42.9917C334.242 43.9277 332.404 45.1057 330.327 45.2387C328.52 45.3537 326.558 44.6847 324.977 45.5667C323.799 46.2247 323.182 47.5827 322.096 48.3827C321.034 49.1667 319.648 49.3327 318.33 49.4047C317.012 49.4757 315.647 49.4887 314.447 50.0387C313.247 50.5887 312.254 51.8577 312.503 53.1537L358.069 52.7027Z" fill="#434B51"/>
<path d="M490.888 47.024C491.237 44.491 487.662 42.407 484.976 42.191C483.695 42.088 482.364 42.284 481.151 41.861C478.522 40.945 477.472 37.547 474.906 36.466C472.988 35.657 470.78 36.377 468.92 37.312C467.061 38.248 465.223 39.426 463.146 39.559C461.339 39.675 459.377 39.004 457.796 39.887C456.618 40.545 456.001 41.903 454.915 42.703C453.853 43.487 452.467 43.653 451.149 43.724C449.831 43.796 448.466 43.809 447.266 44.359C446.066 44.909 445.073 46.178 445.322 47.474L490.888 47.024Z" fill="#434B51"/>
<path d="M565.954 153.643C566.302 151.11 562.728 149.026 560.042 148.81C558.761 148.707 557.43 148.903 556.217 148.479C553.588 147.564 552.538 144.166 549.972 143.085C548.054 142.276 545.846 142.996 543.986 143.931C542.127 144.867 540.289 146.045 538.212 146.178C536.405 146.294 534.443 145.623 532.862 146.506C531.684 147.164 531.067 148.522 529.981 149.322C528.918 150.106 527.533 150.272 526.215 150.343C524.897 150.415 523.532 150.428 522.332 150.978C521.132 151.528 520.139 152.796 520.388 154.093L565.954 153.643Z" fill="#434B51"/>
<path d="M414.893 33.5208C415.119 31.8778 412.799 30.5248 411.055 30.3838C410.223 30.3168 409.359 30.4438 408.571 30.1688C406.864 29.5748 406.183 27.3698 404.517 26.6678C403.272 26.1418 401.839 26.6088 400.631 27.2158C399.424 27.8248 398.231 28.5888 396.883 28.6758C395.71 28.7498 394.436 28.3148 393.409 28.8878C392.644 29.3148 392.244 30.1968 391.539 30.7158C390.849 31.2258 389.95 31.3328 389.094 31.3798C388.238 31.4258 387.353 31.4348 386.573 31.7918C385.794 32.1478 385.149 32.9708 385.311 33.8138L414.893 33.5208Z" fill="#434B51"/>
<rect x="308.562" y="77.6074" width="28.189" height="76.991" fill="#434B51"/>
<rect x="324.56" y="83.0664" width="7.776" height="4.117" fill="#303940"/>
<rect x="312.979" y="83.0664" width="7.776" height="4.117" fill="#303940"/>
<rect x="324.56" y="90.7607" width="7.776" height="4.117" fill="#303940"/>
<rect x="312.979" y="90.7607" width="7.776" height="4.117" fill="#303940"/>
<rect x="324.56" y="98.4561" width="7.776" height="4.117" fill="#303940"/>
<rect x="312.979" y="98.4561" width="7.776" height="4.117" fill="#303940"/>
<rect x="324.56" y="106.15" width="7.776" height="4.117" fill="#303940"/>
<rect x="312.979" y="106.15" width="7.776" height="4.117" fill="#303940"/>
<rect x="324.56" y="113.845" width="7.776" height="4.117" fill="#303940"/>
<rect x="312.979" y="113.845" width="7.776" height="4.117" fill="#303940"/>
<rect x="324.466" y="121.54" width="7.776" height="4.117" fill="#303940"/>
<rect x="312.885" y="121.54" width="7.776" height="4.117" fill="#303940"/>
<rect x="324.466" y="129.234" width="7.776" height="4.117" fill="#303940"/>
<rect x="312.885" y="129.234" width="7.776" height="4.117" fill="#303940"/>
<rect x="324.466" y="136.929" width="7.776" height="4.117" fill="#303940"/>
<rect x="312.885" y="136.929" width="7.776" height="4.117" fill="#303940"/>
<rect x="324.466" y="144.623" width="7.776" height="4.117" fill="#303940"/>
<rect x="312.885" y="144.623" width="7.776" height="4.117" fill="#303940"/>
<rect x="101.48" y="172.811" width="60.182" height="193.686" fill="#434B51"/>
<rect x="112.032" y="195.405" width="8.569" height="21.598" fill="#303940"/>
<rect x="127.976" y="195.405" width="8.569" height="21.598" fill="#303940"/>
<rect x="143.92" y="195.405" width="8.569" height="21.598" fill="#303940"/>
<rect x="112.032" y="223.778" width="8.569" height="21.598" fill="#303940"/>
<rect x="127.976" y="223.778" width="8.569" height="21.598" fill="#303940"/>
<rect x="143.92" y="223.778" width="8.569" height="21.598" fill="#303940"/>
<rect x="112.032" y="252.152" width="8.569" height="21.598" fill="#303940"/>
<rect x="127.976" y="252.152" width="8.569" height="21.598" fill="#303940"/>
<rect x="143.92" y="252.152" width="8.569" height="21.598" fill="#303940"/>
<rect x="112.032" y="280.526" width="8.569" height="21.598" fill="#303940"/>
<rect x="127.976" y="280.526" width="8.569" height="21.598" fill="#303940"/>
<rect x="143.92" y="280.526" width="8.569" height="21.598" fill="#303940"/>
<rect x="112.032" y="308.94" width="8.569" height="21.598" fill="#303940"/>
<rect x="127.976" y="308.94" width="8.569" height="21.598" fill="#303940"/>
<rect x="143.92" y="308.94" width="8.569" height="21.598" fill="#303940"/>
<path d="M215.417 366.468H167.511V263.094L215.417 243.948V366.468Z" fill="#434B51"/>
<rect x="175.581" y="275.954" width="13.214" height="7.827" fill="#303940"/>
<rect x="195.261" y="275.954" width="13.214" height="7.827" fill="#303940"/>
<rect x="175.581" y="290.582" width="13.214" height="7.827" fill="#303940"/>
<rect x="195.261" y="290.582" width="13.214" height="7.827" fill="#303940"/>
<rect x="175.74" y="305.208" width="13.214" height="7.827" fill="#303940"/>
<rect x="195.421" y="305.208" width="13.214" height="7.827" fill="#303940"/>
<rect x="175.74" y="319.835" width="13.214" height="7.827" fill="#303940"/>
<rect x="195.421" y="319.835" width="13.214" height="7.827" fill="#303940"/>
<rect x="175.74" y="334.462" width="13.214" height="7.827" fill="#303940"/>
<rect x="195.421" y="334.462" width="13.214" height="7.827" fill="#303940"/>
<rect x="175.74" y="349.089" width="13.214" height="7.827" fill="#303940"/>
<rect x="195.421" y="349.089" width="13.214" height="7.827" fill="#303940"/>
<path d="M95.529 366.468H47.624V212.681L95.529 198.755V366.468Z" fill="#434B51"/>
<rect x="55.1299" y="223.586" width="13.214" height="8.224" fill="#303940"/>
<rect x="74.8096" y="223.586" width="13.214" height="8.224" fill="#303940"/>
<rect x="55.1299" y="238.955" width="13.214" height="8.224" fill="#303940"/>
<rect x="74.8096" y="238.955" width="13.214" height="8.224" fill="#303940"/>
<rect x="55.1299" y="254.325" width="13.214" height="8.224" fill="#303940"/>
<rect x="74.8096" y="254.325" width="13.214" height="8.224" fill="#303940"/>
<rect x="55.1299" y="269.695" width="13.214" height="8.224" fill="#303940"/>
<rect x="74.8096" y="269.695" width="13.214" height="8.224" fill="#303940"/>
<rect x="55.1299" y="285.065" width="13.214" height="8.224" fill="#303940"/>
<rect x="74.8096" y="285.065" width="13.214" height="8.224" fill="#303940"/>
<rect x="55.2891" y="300.435" width="13.214" height="8.224" fill="#303940"/>
<rect x="74.9697" y="300.435" width="13.214" height="8.224" fill="#303940"/>
<rect x="55.2891" y="315.805" width="13.214" height="8.224" fill="#303940"/>
<rect x="74.9697" y="315.805" width="13.214" height="8.224" fill="#303940"/>
<rect x="55.2891" y="331.175" width="13.214" height="8.224" fill="#303940"/>
<rect x="74.9697" y="331.175" width="13.214" height="8.224" fill="#303940"/>
<rect x="55.2891" y="346.544" width="13.214" height="8.224" fill="#303940"/>
<rect x="74.9697" y="346.544" width="13.214" height="8.224" fill="#303940"/>
<path d="M79.0672 269.444C79.6592 265.14 73.5852 261.599 69.0202 261.23C66.8432 261.055 64.5822 261.388 62.5192 260.669C58.0512 259.113 56.2662 253.339 51.9062 251.5C48.6472 250.126 44.8942 251.35 41.7342 252.94C38.5742 254.53 35.4522 256.531 31.9212 256.757C28.8502 256.954 25.5162 255.815 22.8292 257.316C20.8272 258.433 19.7782 260.74 17.9332 262.101C16.1272 263.433 13.7732 263.715 11.5332 263.837C9.29317 263.958 6.97417 263.981 4.93417 264.915C2.89517 265.849 1.20717 268.005 1.63117 270.208L79.0672 269.444Z" fill="#434B51"/>
<path d="M283.58 314.338C284.172 310.034 278.098 306.493 273.533 306.125C271.356 305.949 269.094 306.282 267.032 305.563C262.564 304.007 260.779 298.233 256.419 296.394C253.16 295.02 249.407 296.244 246.247 297.834C243.087 299.424 239.965 301.425 236.434 301.652C233.363 301.848 230.029 300.71 227.342 302.21C225.34 303.327 224.291 305.634 222.446 306.995C220.64 308.327 218.286 308.609 216.046 308.731C213.806 308.852 211.487 308.875 209.447 309.809C207.408 310.743 205.72 312.899 206.144 315.102L283.58 314.338Z" fill="#434B51"/>
<line x1="343.923" y1="323.687" x2="342.454" y2="323.687" stroke="#375A64" stroke-width="3" stroke-linecap="round"/>
<path d="M343.603 300.24C341.876 296.749 341.428 292.717 342.649 288.837C343.884 284.909 346.611 281.832 350.087 279.965" stroke="#E1E1E1" stroke-linecap="round"/>
<path d="M327.798 295.429C326.071 291.937 325.623 287.906 326.844 284.026C328.079 280.098 330.806 277.021 334.282 275.153" stroke="#E1E1E1" stroke-linecap="round"/>
<path d="M312.038 290.472C310.312 286.98 309.864 282.949 311.084 279.069C312.319 275.141 315.046 272.064 318.522 270.196" stroke="#E1E1E1" stroke-linecap="round"/>
<path d="M296.278 285.515C294.551 282.023 294.104 277.992 295.324 274.112C296.559 270.184 299.286 267.107 302.762 265.239" stroke="#E1E1E1" stroke-linecap="round"/>
<path d="M280.519 280.557C278.792 277.065 278.344 273.034 279.565 269.154C280.8 265.226 283.527 262.149 287.003 260.281" stroke="#E1E1E1" stroke-linecap="round"/>
<path d="M264.759 275.6C263.032 272.108 262.584 268.077 263.805 264.197C265.04 260.269 267.767 257.193 271.243 255.324" stroke="#E1E1E1" stroke-linecap="round"/>
<path d="M225.713 183.5C227.705 184.337 229.358 185.864 230.256 187.935C231.165 190.03 231.139 192.311 230.361 194.356" stroke="#E1E1E1" stroke-linecap="round"/>
<path d="M234.087 179.776C236.079 180.613 237.732 182.141 238.63 184.21C239.539 186.306 239.513 188.587 238.735 190.632" stroke="#E1E1E1" stroke-linecap="round"/>
<path d="M242.495 176.129C244.487 176.966 246.14 178.493 247.038 180.563C247.947 182.659 247.92 184.939 247.143 186.985" stroke="#E1E1E1" stroke-linecap="round"/>
<path d="M250.904 172.483C252.895 173.32 254.548 174.847 255.445 176.917C256.355 179.013 256.329 181.294 255.551 183.339" stroke="#E1E1E1" stroke-linecap="round"/>
<path d="M259.312 168.836C261.304 169.673 262.957 171.2 263.855 173.271C264.764 175.366 264.738 177.647 263.96 179.692" stroke="#E1E1E1" stroke-linecap="round"/>
<path d="M267.72 165.19C269.712 166.027 271.365 167.554 272.263 169.624C273.172 171.72 273.146 174 272.368 176.046" stroke="#E1E1E1" stroke-linecap="round"/>
<path d="M398.238 96.7637H227.541C226.119 96.7637 224.965 97.9167 224.965 99.3397V103.925C224.965 105.348 226.119 106.501 227.541 106.501H398.238C399.661 106.501 400.814 105.348 400.814 103.925V99.3397C400.814 97.9167 399.661 96.7637 398.238 96.7637Z" fill="#FFBB00"/>
<path d="M224.02 98.2051C224.02 99.4721 222.993 100.499 221.726 100.499C220.458 100.499 219.431 99.4721 219.431 98.2051C219.431 96.9381 220.458 95.9111 221.726 95.9111C222.993 95.9111 224.02 96.9381 224.02 98.2051Z" fill="#303940"/>
<path d="M221.3 104.848C221.3 105.761 220.56 106.501 219.647 106.501C218.735 106.501 217.995 105.761 217.995 104.848C217.995 103.935 218.735 103.196 219.647 103.196C220.56 103.196 221.3 103.935 221.3 104.848Z" fill="#303940"/>
<path d="M220.359 98.4821L218.715 104.046L221.047 105.726H223.349L224.021 98.2051L220.359 98.4821Z" fill="#303940"/>
<rect x="249.327" y="96.7637" width="1" height="9.737" fill="#E8A600"/>
<rect x="250.961" y="96.7637" width="1" height="9.737" fill="#E8A600"/>
<rect x="272.209" y="96.7637" width="1" height="9.737" fill="#E8A600"/>
<rect x="273.843" y="96.7637" width="1" height="9.737" fill="#E8A600"/>
<rect x="298.838" y="96.7637" width="1" height="9.737" fill="#E8A600"/>
<rect x="300.473" y="96.7637" width="1" height="9.737" fill="#E8A600"/>
<rect x="332.683" y="96.7637" width="1" height="9.737" fill="#E8A600"/>
<rect x="334.318" y="96.7637" width="1" height="9.737" fill="#E8A600"/>
<rect x="393.157" y="96.7637" width="1" height="9.737" fill="#E8A600"/>
<rect x="394.792" y="96.7637" width="1" height="9.737" fill="#E8A600"/>
<rect x="372.999" y="96.7637" width="1" height="9.737" fill="#E8A600"/>
<rect x="374.634" y="96.7637" width="1" height="9.737" fill="#E8A600"/>
<rect x="231.893" y="96.7637" width="1" height="9.737" fill="#E8A600"/>
<rect x="233.527" y="96.7637" width="1" height="9.737" fill="#E8A600"/>
<path d="M372.393 106.459H341.539L343.204 99.3793C343.31 98.9273 343.704 98.6103 344.157 98.6123L371.019 98.7183C371.779 98.7213 372.393 99.3383 372.393 100.097V106.459Z" fill="#E8A600"/>
<path d="M431.816 140.506L427.206 146.428H405.955L397.718 148.413L338.743 148.191L329.998 146.618H279.055L274.569 148.191H270.615V135.49H431.816V140.506Z" fill="#3F3F3F"/>
<path d="M273.246 136.274L277.108 143.372L362.165 143.442L366.35 135.868L397.392 135.89L401.534 143.477H427.298L431.816 138.778V134.942L268.565 135.223L273.246 136.274Z" fill="black"/>
<path d="M400.68 142.403H426.287L431.816 138.063V135.15H397.354L400.68 142.403Z" fill="#3F3F3F"/>
<path d="M334.94 132.747H291.559C291.135 132.747 290.793 132.404 290.793 131.981V130.536C290.793 130.113 291.135 129.77 291.559 129.77H334.94C335.362 129.77 335.706 130.113 335.706 130.536V131.981C335.706 132.404 335.362 132.747 334.94 132.747Z" fill="#B2B2B2"/>
<path d="M426.45 132.747H343.614C343.191 132.747 342.848 132.404 342.848 131.981V130.536C342.848 130.113 343.191 129.77 343.614 129.77H426.45C426.873 129.77 427.216 130.113 427.216 130.536V131.981C427.216 132.404 426.873 132.747 426.45 132.747Z" fill="#B2B2B2"/>
<rect x="281.376" y="132.628" width="149.273" height="1" fill="#4E565C"/>
<path d="M276.081 117.836H275.207C274.936 117.836 274.716 117.616 274.716 117.345V112.932C274.716 112.661 274.936 112.441 275.207 112.441H276.081C276.352 112.441 276.572 112.661 276.572 112.932V117.345C276.572 117.616 276.352 117.836 276.081 117.836Z" fill="#B2B2B2"/>
<path d="M277.666 136.024H273.621C273.132 136.024 272.742 135.643 272.761 135.186L273.518 117.471C273.536 117.039 273.916 116.698 274.378 116.698H276.909C277.371 116.698 277.751 117.039 277.769 117.471L278.526 135.186C278.545 135.643 278.155 136.024 277.666 136.024Z" fill="black"/>
<path d="M268.692 112.567L271.229 116.069C271.326 116.202 271.381 116.397 271.381 116.602V120.452C271.381 120.629 271.423 120.8 271.497 120.929L272.025 121.846C272.099 121.976 272.141 122.146 272.141 122.324V135.491H268.565L268.692 112.567Z" fill="#3F3F3F"/>
<path d="M236.343 130.519L244.097 110.758C244.132 110.668 244.203 110.596 244.292 110.559L247.688 109.143C247.719 109.13 247.752 109.121 247.786 109.118L268.33 106.828C268.541 106.804 268.727 106.97 268.727 107.183V142.172C268.727 142.37 268.567 142.53 268.369 142.53H237.652C237.467 142.53 237.312 142.387 237.296 142.202L236.32 130.68C236.315 130.625 236.323 130.57 236.343 130.519Z" fill="#FFBB00"/>
<path d="M247.293 110.617L242.235 129.355V142.529H237.324L236.313 130.596L244.153 110.617H247.293Z" fill="#FFC32C"/>
<path d="M245.975 113.021C245.754 112.732 245.42 112.567 245.056 112.567H243.388L236.662 129.706L240.271 129.201L241.635 128.831C241.86 128.771 242.038 128.593 242.098 128.372L246.172 114.026C246.267 113.676 246.195 113.309 245.975 113.021Z" fill="#3F3F3F"/>
<path d="M236.312 130.596L242.234 129.355L243.077 142.529H237.324L236.312 130.596Z" fill="#E8A600"/>
<path d="M236.835 129.265L240.188 128.795L241.526 128.433C241.611 128.41 241.677 128.344 241.7 128.259L245.773 113.918C245.901 113.445 245.546 112.979 245.056 112.979H243.226L236.835 129.265Z" fill="#8E8E8E"/>
<path d="M248.983 113.454L245.193 127.242C245.069 127.692 245.479 128.11 245.949 128.014L260.761 124.981C261.059 124.92 261.272 124.665 261.272 124.37V113.832C261.272 113.492 260.991 113.214 260.64 113.207L249.619 112.991C249.322 112.985 249.06 113.176 248.983 113.454Z" fill="#8E8E8E"/>
<path d="M260.648 112.794L249.606 112.577C249.135 112.577 248.719 112.891 248.595 113.342L244.805 127.13C244.721 127.436 244.781 127.759 244.969 128.014C245.167 128.281 245.482 128.44 245.813 128.44C245.884 128.44 245.957 128.432 246.028 128.418L260.839 125.385C261.323 125.286 261.675 124.859 261.675 124.37V113.831C261.675 113.27 261.214 112.805 260.648 112.794Z" fill="#3F3F3F"/>
<path d="M248.983 113.454L245.193 127.242C245.069 127.692 245.479 128.11 245.949 128.014L260.761 124.981C261.059 124.92 261.272 124.665 261.272 124.37V113.832C261.272 113.492 260.991 113.214 260.64 113.207L249.619 112.991C249.322 112.985 249.06 113.176 248.983 113.454Z" fill="#8E8E8E"/>
<path d="M245.84 124.891L245.194 127.242C245.07 127.692 245.48 128.11 245.95 128.014L260.762 124.981C261.06 124.92 261.273 124.665 261.273 124.37V123.641L245.84 124.891Z" fill="#3F3F3F"/>
<path d="M242.618 125.03H238.497L236.835 129.266L240.188 128.796L241.527 128.434C241.611 128.411 241.678 128.344 241.701 128.26L242.618 125.03Z" fill="#3F3F3F"/>
<rect x="249.849" y="112.991" width="1" height="14.322" fill="#3F3F3F"/>
<path d="M243.204 124.274H242.031C241.668 124.274 241.373 123.979 241.373 123.615V114.271C241.373 113.907 241.668 113.612 242.031 113.612H243.204C243.568 113.612 243.862 113.907 243.862 114.271V123.615C243.862 123.979 243.568 124.274 243.204 124.274Z" fill="#3F3F3F"/>
<path d="M261.391 131.673H256.916C256.645 131.673 256.425 131.453 256.425 131.182V130.627C256.425 130.357 256.645 130.136 256.916 130.136H261.391C261.662 130.136 261.882 130.357 261.882 130.627V131.182C261.882 131.453 261.662 131.673 261.391 131.673ZM256.916 130.219C256.691 130.219 256.508 130.402 256.508 130.627V131.182C256.508 131.407 256.691 131.591 256.916 131.591H261.391C261.616 131.591 261.799 131.407 261.799 131.182V130.627C261.799 130.402 261.616 130.219 261.391 130.219H256.916Z" fill="#E8A600"/>
<path d="M238.386 141.419L237.228 141.509C236.869 141.537 236.555 141.268 236.527 140.909L236.106 135.486C236.079 135.127 236.347 134.813 236.706 134.785L237.864 134.695C238.223 134.667 238.537 134.936 238.565 135.295L238.986 140.718C239.014 141.077 238.745 141.391 238.386 141.419Z" fill="#8E8E8E"/>
<path d="M264.171 147.838L250.96 147.445L237.445 145.83C237.359 145.821 237.287 145.761 237.262 145.679L236.396 142.805C236.355 142.668 236.458 142.529 236.602 142.529H264.385V147.624C264.385 147.742 264.289 147.838 264.171 147.838Z" fill="black"/>
<path d="M256.179 141.387H243.652L243.65 141.348L242.936 129.35L242.938 129.344L248.063 111.21H262.812L262.304 135.378L262.274 135.385C259.328 136.137 256.996 138.426 256.187 141.356L256.179 141.387ZM243.73 141.304H256.116C256.938 138.369 259.274 136.078 262.223 135.313L262.728 111.292H248.125L243.019 129.359L243.73 141.304Z" fill="#E8A600"/>
<path d="M266.306 124.232H264.741C264.256 124.232 263.862 123.838 263.862 123.353V114.282C263.862 113.797 264.256 113.403 264.741 113.403H266.306C266.791 113.403 267.185 113.797 267.185 114.282V123.353C267.185 123.838 266.791 124.232 266.306 124.232Z" fill="#8E8E8E"/>
<path d="M263.479 123.533V114.102C263.479 113.504 263.963 113.02 264.561 113.02H266.486C267.083 113.02 267.568 113.504 267.568 114.102V123.533C267.568 124.13 267.083 124.615 266.486 124.615H264.561C263.963 124.615 263.479 124.13 263.479 123.533Z" fill="#E8A600"/>
<path d="M266.306 124.232H264.741C264.256 124.232 263.862 123.838 263.862 123.353V114.282C263.862 113.797 264.256 113.403 264.741 113.403H266.306C266.791 113.403 267.185 113.797 267.185 114.282V123.353C267.185 123.838 266.791 124.232 266.306 124.232Z" fill="#FFBB00"/>
<rect x="253.981" y="135.041" width="60.36" height="12.609" fill="#3F3F3F"/>
<path d="M275.074 147.208C275.074 151.768 271.378 155.463 266.819 155.463C262.26 155.463 258.565 151.768 258.565 147.208C258.565 142.65 262.26 138.954 266.819 138.954C271.378 138.954 275.074 142.65 275.074 147.208Z" fill="black"/>
<path d="M271.622 147.208C271.622 149.862 269.472 152.012 266.819 152.012C264.166 152.012 262.015 149.862 262.015 147.208C262.015 144.556 264.166 142.406 266.819 142.406C269.472 142.406 271.622 144.556 271.622 147.208Z" fill="#8E8E8E"/>
<path d="M270.454 147.208C270.454 149.216 268.826 150.844 266.819 150.844C264.812 150.844 263.184 149.216 263.184 147.208C263.184 145.201 264.812 143.574 266.819 143.574C268.826 143.574 270.454 145.201 270.454 147.208Z" fill="#B2B2B2"/>
<path d="M381.118 146.317C381.118 150.876 377.422 154.572 372.863 154.572C368.304 154.572 364.609 150.876 364.609 146.317C364.609 141.758 368.304 138.063 372.863 138.063C377.422 138.063 381.118 141.758 381.118 146.317Z" fill="black"/>
<path d="M377.667 146.317C377.667 148.97 375.517 151.12 372.864 151.12C370.211 151.12 368.06 148.97 368.06 146.317C368.06 143.664 370.211 141.514 372.864 141.514C375.517 141.514 377.667 143.664 377.667 146.317Z" fill="#8E8E8E"/>
<path d="M376.499 146.317C376.499 148.326 374.871 149.952 372.864 149.952C370.857 149.952 369.229 148.326 369.229 146.317C369.229 144.31 370.857 142.682 372.864 142.682C374.871 142.682 376.499 144.31 376.499 146.317Z" fill="#B2B2B2"/>
<path d="M399.41 146.317C399.41 150.876 395.715 154.572 391.155 154.572C386.596 154.572 382.901 150.876 382.901 146.317C382.901 141.758 386.596 138.063 391.155 138.063C395.715 138.063 399.41 141.758 399.41 146.317Z" fill="black"/>
<path d="M395.959 146.317C395.959 148.97 393.809 151.12 391.156 151.12C388.503 151.12 386.352 148.97 386.352 146.317C386.352 143.664 388.503 141.514 391.156 141.514C393.809 141.514 395.959 143.664 395.959 146.317Z" fill="#8E8E8E"/>
<path d="M394.79 146.317C394.79 148.326 393.162 149.952 391.155 149.952C389.148 149.952 387.52 148.326 387.52 146.317C387.52 144.31 389.148 142.682 391.155 142.682C393.162 142.682 394.79 144.31 394.79 146.317Z" fill="#B2B2B2"/>
<path d="M234.526 132.57L235.613 133.476C235.631 133.49 235.637 133.514 235.629 133.535L235.581 133.656L234.265 132.974L234.526 132.57Z" fill="#8F9F9F"/>
<path d="M233.509 130.471C233.659 130.835 233.486 131.251 233.122 131.402C232.758 131.551 232.342 131.378 232.192 131.014C232.042 130.651 232.215 130.234 232.578 130.084C232.942 129.934 233.359 130.107 233.509 130.471Z" fill="#8F9F9F"/>
<rect x="220.65" y="125.991" width="1" height="20.851" transform="rotate(-22.0234 220.65 125.991)" fill="#303940"/>
<rect x="223.572" y="124.786" width="1" height="20.851" transform="rotate(-22.0234 223.572 124.786)" fill="#303940"/>
<path d="M232.084 122.442C231.982 122.328 231.82 122.291 231.678 122.35L229.872 123.095L229.496 123.25L227.69 123.996C227.549 124.053 227.459 124.194 227.467 124.347L227.576 126.473C227.579 126.547 227.606 126.618 227.651 126.676L230.953 130.922C231.053 131.05 231.226 131.096 231.376 131.034L232.588 130.534L232.816 130.44L234.028 129.94C234.178 129.878 234.268 129.724 234.248 129.563L233.596 124.223C233.587 124.15 233.556 124.081 233.507 124.026L232.084 122.442Z" fill="#4E565C"/>
<rect x="231.01" y="120.137" width="11.7206" height="1.24639" transform="rotate(-63.5589 231.01 120.137)" fill="#303940"/>
<rect x="232.126" y="120.692" width="11.7206" height="1.24639" transform="rotate(-63.5589 232.126 120.692)" fill="#FFBB00"/>
<rect x="233.242" y="121.247" width="11.7203" height="1.24594" transform="rotate(-63.5589 233.242 121.247)" fill="#303940"/>
<rect x="234.358" y="121.803" width="11.7206" height="1.24639" transform="rotate(-63.5589 234.358 121.803)" fill="#FFBB00"/>
<rect x="235.475" y="122.357" width="11.7206" height="1.24639" transform="rotate(-63.5589 235.475 122.357)" fill="#303940"/>
<rect x="236.591" y="122.912" width="11.7206" height="1.24639" transform="rotate(-63.5589 236.591 122.912)" fill="#FFBB00"/>
<rect x="237.706" y="123.468" width="11.7206" height="1.24639" transform="rotate(-63.5589 237.706 123.468)" fill="#303940"/>
<rect x="238.823" y="124.022" width="11.7206" height="1.24639" transform="rotate(-63.5589 238.823 124.022)" fill="#FFBB00"/>
<path d="M236.054 133.203L236.05 133.198C235.595 133.52 235.329 133.956 235.29 134.497C235.289 134.51 235.287 134.523 235.283 134.536L235.267 134.593C234.896 135.849 233.126 134.98 233.873 133.926C233.88 133.915 233.89 133.905 233.899 133.896C234.345 133.485 234.607 132.825 234.47 132.236C234.352 131.735 234.084 131.217 233.946 130.971C233.899 130.886 233.796 130.851 233.707 130.887L232.355 131.445C232.257 131.485 232.211 131.597 232.251 131.694C232.35 131.936 232.517 132.34 232.517 132.34C232.604 132.552 232.553 132.786 232.406 132.942C230.789 134.737 232.772 137.551 235.011 136.615C235.857 136.271 236.421 135.436 236.439 134.532V134.515C236.42 134.217 236.424 133.91 236.558 133.636L236.555 133.629C236.606 133.542 236.617 133.433 236.576 133.333C236.495 133.127 236.221 133.06 236.054 133.203Z" fill="#8F9F9F"/>
<path d="M232.946 132.14C233.07 132.44 232.888 132.824 232.594 133.048C232.264 133.3 231.672 134.122 232.038 135.113C232.482 136.312 233.69 136.967 234.877 136.545C236.216 136.068 236.434 134.432 236.434 134.432C236.435 134.46 236.437 134.487 236.439 134.515V134.532C236.421 135.437 235.857 136.271 235.011 136.615C232.772 137.551 230.79 134.738 232.406 132.943C232.553 132.786 232.604 132.552 232.517 132.34C232.517 132.34 232.309 131.836 232.251 131.694C232.193 131.553 232.324 131.463 232.324 131.463C232.324 131.463 232.276 131.585 232.44 131.572C232.556 131.562 232.688 131.514 232.688 131.514L232.946 132.14Z" fill="#758988"/>
<path d="M397.354 135.141H366.529C366.276 135.141 366.044 135.281 365.925 135.504L361.475 143.87C361.426 143.964 361.494 144.077 361.6 144.076L362.889 144.067C362.94 144.066 362.987 144.038 363.012 143.992L366.957 136.56L369.184 136.555H396.84C396.893 136.555 396.94 136.584 396.965 136.63L400.876 144.003C400.9 144.049 400.948 144.078 400.999 144.078H402.283C402.389 144.078 402.456 143.965 402.407 143.872L397.957 135.504C397.839 135.281 397.606 135.141 397.354 135.141Z" fill="#FFBB00"/>
<rect x="279.817" y="133.087" width="151.999" height="2.06299" fill="#E2E2E2"/>
<rect x="275.786" y="121.741" width="2.85001" height="4.698" fill="#3F3F3F"/>
<path d="M281.376 129.447C281.376 131.747 279.511 133.612 277.211 133.612C274.911 133.612 273.046 131.747 273.046 129.447C273.046 127.147 274.911 125.282 277.211 125.282C279.511 125.282 281.376 127.147 281.376 129.447Z" fill="#3F3F3F"/>
<rect x="273.901" y="131.509" width="6.621" height="4.03802" fill="#3F3F3F"/>
<path d="M275.142 123.485C274.32 123.485 273.652 122.817 273.652 121.996C273.652 121.176 274.32 120.508 275.142 120.508H279.28C280.102 120.508 280.77 121.176 280.77 121.996C280.77 122.817 280.102 123.485 279.28 123.485H275.142Z" fill="#B2B2B2"/>
<path d="M279.865 123.238H274.557C274.194 123.238 273.9 122.944 273.9 122.581V121.412C273.9 121.05 274.194 120.756 274.557 120.756H279.865C280.228 120.756 280.522 121.05 280.522 121.412V122.581C280.522 122.944 280.228 123.238 279.865 123.238Z" fill="#3F3F3F"/>
<rect x="282.885" y="111.251" width="1.60199" height="24.094" fill="#3F3F3F"/>
<rect x="282.453" y="112.567" width="2.466" height="1" fill="#3F3F3F"/>
<path d="M276.33 135.349L278.683 139.846C278.754 139.981 278.875 140.082 279.02 140.128L284.378 141.824C284.618 141.9 284.78 142.123 284.78 142.374V144.274C284.78 144.593 285.039 144.851 285.357 144.851H294.654C294.972 144.851 295.23 144.593 295.23 144.274V134.388C295.23 134.07 294.972 133.811 294.654 133.811H276.841C276.523 133.811 276.264 134.07 276.264 134.388V135.081C276.264 135.174 276.287 135.266 276.33 135.349Z" fill="#4E565C"/>
<path d="M281.117 150.653H279.926C279.557 150.653 279.257 150.353 279.257 149.984V130.773C279.257 130.404 279.557 130.104 279.926 130.104H281.117C281.486 130.104 281.786 130.404 281.786 130.773V149.984C281.786 150.353 281.486 150.653 281.117 150.653Z" fill="#B2B2B2"/>
<path d="M281.701 151.768H279.343C279.233 151.768 279.145 151.68 279.145 151.57V151.218C279.145 151.108 279.233 151.018 279.343 151.018H281.701C281.811 151.018 281.899 151.108 281.899 151.218V151.57C281.899 151.68 281.811 151.768 281.701 151.768Z" fill="#B2B2B2"/>
<rect x="276.142" y="133.971" width="11.7204" height="1.24687" transform="rotate(-43.8636 276.142 133.971)" fill="#303940"/>
<rect x="277.006" y="134.869" width="11.7204" height="1.24687" transform="rotate(-43.8636 277.006 134.869)" fill="#FFBB00"/>
<rect x="277.87" y="135.768" width="11.7204" height="1.24687" transform="rotate(-43.8636 277.87 135.768)" fill="#303940"/>
<rect x="278.734" y="136.666" width="11.7204" height="1.24687" transform="rotate(-43.8636 278.734 136.666)" fill="#FFBB00"/>
<rect x="279.599" y="137.564" width="11.7204" height="1.24687" transform="rotate(-43.8636 279.599 137.564)" fill="#303940"/>
<rect x="280.463" y="138.463" width="11.7204" height="1.24687" transform="rotate(-43.8636 280.463 138.463)" fill="#FFBB00"/>
<rect x="281.326" y="139.361" width="11.7204" height="1.24687" transform="rotate(-43.8636 281.326 139.361)" fill="#303940"/>
<rect x="282.19" y="140.26" width="11.7204" height="1.24687" transform="rotate(-43.8636 282.19 140.26)" fill="#FFBB00"/>
<rect x="279.735" y="150.654" width="1.57401" height="1" fill="#3F3F3F"/>
<path d="M276.5 151.018H276.349C276.303 151.018 276.265 150.981 276.265 150.934V143.354C276.265 143.307 276.303 143.268 276.349 143.268H276.5C276.547 143.268 276.584 143.307 276.584 143.354V150.934C276.584 150.981 276.547 151.018 276.5 151.018Z" fill="black"/>
<path d="M266.407 135.223H273.013C273.253 135.223 273.473 135.357 273.586 135.568L278.011 143.913C278.065 144.016 277.991 144.141 277.874 144.141H276.729C276.671 144.141 276.618 144.107 276.591 144.056L272.998 137.104C272.85 136.818 272.554 136.637 272.231 136.637H266.511C266.432 136.637 266.365 136.577 266.358 136.498L266.253 135.392C266.245 135.302 266.316 135.223 266.407 135.223Z" fill="#FFBB00"/>
<path d="M286.49 148.979H286.708C286.776 148.979 286.831 148.924 286.831 148.857V129.57C286.831 129.502 286.776 129.447 286.708 129.447H286.49C286.422 129.447 286.367 129.502 286.367 129.57V148.857C286.367 148.924 286.422 148.979 286.49 148.979Z" fill="black"/>
<path d="M293.908 148.979H294.126C294.194 148.979 294.249 148.924 294.249 148.857V129.57C294.249 129.502 294.194 129.447 294.126 129.447H293.908C293.84 129.447 293.785 129.502 293.785 129.57V148.857C293.785 148.924 293.84 148.979 293.908 148.979Z" fill="black"/>
<rect x="286.599" y="134.717" width="7.418" height="1" fill="black"/>
<rect x="286.599" y="138.156" width="7.418" height="1" fill="black"/>
<rect x="286.599" y="141.595" width="7.418" height="1" fill="black"/>
<rect x="286.599" y="145.034" width="7.418" height="1" fill="black"/>
<rect x="286.599" y="148.473" width="7.418" height="1" fill="black"/>
<path d="M421.562 148.979H421.78C421.848 148.979 421.903 148.924 421.903 148.857V129.57C421.903 129.502 421.848 129.447 421.78 129.447H421.562C421.494 129.447 421.439 129.502 421.439 129.57V148.857C421.439 148.924 421.494 148.979 421.562 148.979Z" fill="black"/>
<path d="M428.98 148.979H429.198C429.266 148.979 429.321 148.924 429.321 148.857V129.57C429.321 129.502 429.266 129.447 429.198 129.447H428.98C428.912 129.447 428.857 129.502 428.857 129.57V148.857C428.857 148.924 428.912 148.979 428.98 148.979Z" fill="black"/>
<rect x="421.671" y="134.717" width="7.418" height="1" fill="black"/>
<rect x="421.671" y="138.156" width="7.418" height="1" fill="black"/>
<rect x="421.671" y="141.595" width="7.418" height="1" fill="black"/>
<rect x="421.671" y="145.034" width="7.418" height="1" fill="black"/>
<rect x="421.671" y="148.473" width="7.418" height="1" fill="black"/>
<path d="M323.956 148.413H312.93C312.297 148.413 311.783 147.9 311.783 147.266V145.224C311.783 144.591 312.297 144.077 312.93 144.077H323.956C324.589 144.077 325.103 144.591 325.103 145.224V147.266C325.103 147.9 324.589 148.413 323.956 148.413Z" fill="black"/>
<path d="M357.333 145.54C357.333 150.099 353.638 153.795 349.079 153.795C344.52 153.795 340.824 150.099 340.824 145.54C340.824 140.981 344.52 137.285 349.079 137.285C353.638 137.285 357.333 140.981 357.333 145.54Z" fill="black"/>
<path d="M353.882 145.54C353.882 148.193 351.731 150.343 349.079 150.343C346.426 150.343 344.275 148.193 344.275 145.54C344.275 142.887 346.426 140.737 349.079 140.737C351.731 140.737 353.882 142.887 353.882 145.54Z" fill="#8E8E8E"/>
<path d="M352.714 145.54C352.714 147.547 351.087 149.175 349.079 149.175C347.072 149.175 345.445 147.547 345.445 145.54C345.445 143.533 347.072 141.905 349.079 141.905C351.087 141.905 352.714 143.533 352.714 145.54Z" fill="#B2B2B2"/>
<path d="M409.724 134.989L410.191 144.101C410.21 144.467 410.473 144.752 410.791 144.752H418.92C419.222 144.752 419.477 144.494 419.516 144.15L420.254 137.61C420.267 137.497 420.255 137.383 420.22 137.277L419.379 134.704C419.291 134.435 419.067 134.256 418.817 134.256H410.324C409.978 134.256 409.704 134.591 409.724 134.989Z" fill="#4E565C"/>
<path d="M416.899 150.653H415.708C415.339 150.653 415.039 150.353 415.039 149.984V130.773C415.039 130.404 415.339 130.104 415.708 130.104H416.899C417.268 130.104 417.568 130.404 417.568 130.773V149.984C417.568 150.353 417.268 150.653 416.899 150.653Z" fill="#B2B2B2"/>
<path d="M417.482 151.768H415.124C415.014 151.768 414.925 151.68 414.925 151.57V151.218C414.925 151.108 415.014 151.018 415.124 151.018H417.482C417.592 151.018 417.68 151.108 417.68 151.218V151.57C417.68 151.68 417.592 151.768 417.482 151.768Z" fill="#B2B2B2"/>
<rect x="411.924" y="133.971" width="11.7204" height="1.24687" transform="rotate(-43.8636 411.924 133.971)" fill="#303940"/>
<rect x="412.788" y="134.869" width="11.7204" height="1.24687" transform="rotate(-43.8636 412.788 134.869)" fill="#FFBB00"/>
<rect x="413.651" y="135.768" width="11.7204" height="1.24687" transform="rotate(-43.8636 413.651 135.768)" fill="#303940"/>
<rect x="414.516" y="136.666" width="11.7204" height="1.24687" transform="rotate(-43.8636 414.516 136.666)" fill="#FFBB00"/>
<rect x="415.38" y="137.564" width="11.7204" height="1.24687" transform="rotate(-43.8636 415.38 137.564)" fill="#303940"/>
<rect x="416.244" y="138.463" width="11.7204" height="1.24687" transform="rotate(-43.8636 416.244 138.463)" fill="#FFBB00"/>
<rect x="417.108" y="139.361" width="11.7204" height="1.24687" transform="rotate(-43.8636 417.108 139.361)" fill="#303940"/>
<rect x="417.973" y="140.26" width="11.7204" height="1.24687" transform="rotate(-43.8636 417.973 140.26)" fill="#FFBB00"/>
<rect x="415.516" y="150.654" width="1.57401" height="1" fill="#3F3F3F"/>
<path d="M378.996 130.094H344.766C344.343 130.094 344.001 129.751 344.001 129.328V126.946C344.001 126.523 344.343 126.181 344.766 126.181H378.996C379.419 126.181 379.762 126.523 379.762 126.946V129.328C379.762 129.751 379.419 130.094 378.996 130.094Z" fill="#E8A600"/>
<rect x="379.872" y="119.87" width="46.225" height="9.94299" fill="#3F3F3F"/>
<path d="M412.184 111.607H422.951C423.319 111.607 423.618 111.308 423.618 110.94V109.496C423.618 109.35 423.57 109.209 423.483 109.093L422.776 108.162C422.65 107.996 422.453 107.898 422.244 107.898H413.198C413.086 107.898 412.976 107.926 412.879 107.979L411.864 108.532C411.65 108.649 411.517 108.874 411.517 109.118V110.94C411.517 111.308 411.815 111.607 412.184 111.607Z" fill="#E8A600"/>
<rect x="382.901" y="112.889" width="19.052" height="8.05499" fill="#E8A600"/>
<path d="M360.427 126.369C359.321 126.369 358.332 125.71 357.906 124.689C357.48 123.669 357.707 122.502 358.484 121.716L362.868 117.282C363.044 117.104 363.243 116.952 363.459 116.829L391.062 101.11C391.418 100.908 391.821 100.786 392.228 100.758L396.672 100.454C396.734 100.449 396.797 100.447 396.859 100.447C397.906 100.447 398.843 101.03 399.308 101.969L401.823 107.058C402.394 108.212 402.073 109.625 401.058 110.419L381.446 125.787C380.967 126.162 380.368 126.369 379.76 126.369H360.427Z" fill="#FFBB00"/>
<path d="M379.762 125.066H360.428C359.84 125.066 359.335 124.729 359.109 124.187C358.882 123.645 358.998 123.049 359.411 122.631L363.795 118.197C363.887 118.105 363.991 118.025 364.104 117.961L391.708 102.241C391.894 102.136 392.105 102.072 392.318 102.057L396.761 101.753C397.34 101.715 397.882 102.024 398.14 102.546L400.656 107.635C400.954 108.238 400.786 108.978 400.256 109.393L380.643 124.761C380.393 124.958 380.08 125.066 379.762 125.066ZM364.145 118.032C364.039 118.093 363.94 118.168 363.854 118.256L359.47 122.689C359.081 123.083 358.972 123.644 359.185 124.155C359.398 124.666 359.874 124.983 360.428 124.983H379.762C380.061 124.983 380.356 124.881 380.592 124.696L400.205 109.328C400.705 108.936 400.863 108.24 400.582 107.671L398.066 102.582C397.823 102.091 397.315 101.798 396.767 101.836L392.323 102.14C392.123 102.154 391.924 102.214 391.749 102.313L364.145 118.032Z" fill="#E8A600"/>
<path d="M387.467 102.62V127.09H373.832V103.89L387.467 102.62Z" fill="#E8A600"/>
<path d="M426.698 127.339H407.799C405.617 127.339 403.848 125.57 403.848 123.388V116.353C403.848 114.17 405.617 112.402 407.799 112.402H426.698C428.879 112.402 430.648 114.17 430.648 116.353V123.388C430.648 125.57 428.879 127.339 426.698 127.339Z" fill="#E8A600"/>
<path d="M422.696 128.603H397.676C395.18 128.603 393.157 126.58 393.157 124.084V115.451C393.157 112.955 395.18 110.932 397.676 110.932H422.696C425.192 110.932 427.215 112.955 427.215 115.451V124.084C427.215 126.58 425.192 128.603 422.696 128.603Z" fill="#FFBB00"/>
<path d="M389.625 128.472H388.717V122.788C388.717 122.593 388.742 122.399 388.79 122.21L393.262 104.872C393.526 103.851 394.447 103.138 395.501 103.138H406.874C408.149 103.138 409.186 104.175 409.186 105.45V110.97H408.278V105.45C408.278 104.676 407.648 104.046 406.874 104.046H395.501C394.861 104.046 394.301 104.479 394.141 105.099L389.67 122.437C389.64 122.552 389.625 122.67 389.625 122.788V128.472Z" fill="#494949"/>
<path d="M399.375 128.423H383.742C383.277 128.423 382.9 128.046 382.9 127.581V126.083C382.9 125.619 383.277 125.242 383.742 125.242H399.375C399.84 125.242 400.215 125.619 400.215 126.083V127.581C400.215 128.046 399.84 128.423 399.375 128.423Z" fill="#E8A600"/>
<rect x="409.923" y="110.933" width="1" height="17.49" fill="#E8A600"/>
<path d="M369.441 126.369H345.205C344.584 126.369 343.984 126.118 343.511 125.661L341.024 122.885C339.818 121.719 339.303 119.867 339.7 118.121L343.862 99.781C343.933 99.468 344.181 99.249 344.464 99.249H370.885C371.392 99.249 371.802 99.718 371.802 100.296L372.064 123.375C372.064 125.028 370.89 126.369 369.441 126.369Z" fill="#FFBB00"/>
<path d="M358.112 125.419H346.061C345.492 125.419 344.714 125.282 344.394 124.899L341.483 121.619C340.764 120.757 340.48 119.554 340.724 118.398L344.231 101.753C344.375 101.069 344.908 100.592 345.527 100.592H363.282C364.017 100.592 364.615 101.271 364.615 102.107V115.629C364.615 116.003 364.515 116.364 364.327 116.67L359.428 124.639C359.128 125.127 358.636 125.419 358.112 125.419ZM345.527 100.674C344.948 100.674 344.448 101.125 344.312 101.77L340.804 118.415C340.566 119.546 340.843 120.724 341.546 121.565L344.456 124.845C344.781 125.233 345.617 125.336 346.061 125.336H358.112C358.607 125.336 359.072 125.059 359.357 124.596L364.256 116.627C364.437 116.333 364.532 115.988 364.532 115.629V102.107C364.532 101.317 363.972 100.674 363.282 100.674H345.527Z" fill="#E8A600"/>
<path d="M371.083 99.2493H344.493C344.351 99.2493 344.236 99.1343 344.236 98.9932V98.5373C344.236 98.3952 344.351 98.2812 344.493 98.2812H371.083C371.225 98.2812 371.339 98.3952 371.339 98.5373V98.9932C371.339 99.1343 371.225 99.2493 371.083 99.2493Z" fill="#E8A600"/>
<path d="M344.16 118.805C343.597 118.805 343.07 118.525 342.713 118.037C342.362 117.555 342.232 116.933 342.357 116.328L344.681 105.086C344.805 104.486 345.166 103.986 345.67 103.714L349.083 101.874C349.337 101.738 349.62 101.665 349.903 101.665L349.956 101.666L361.966 102.046C362.976 102.078 363.766 102.968 363.766 104.072V109.767C363.766 110.619 363.274 111.385 362.542 111.675L344.794 118.682C344.587 118.764 344.374 118.805 344.16 118.805Z" fill="black"/>
<path d="M361.957 102.407L349.947 102.028C349.698 102.02 349.452 102.079 349.228 102.199L345.815 104.039C345.404 104.261 345.104 104.676 345.004 105.166L342.678 116.408C342.414 117.692 343.549 118.79 344.681 118.343L362.43 111.335C363.034 111.097 363.435 110.47 363.435 109.768V104.073C363.435 103.171 362.78 102.433 361.957 102.407Z" fill="#3F3F3F"/>
<path d="M361.957 102.407L349.947 102.028C349.698 102.02 349.452 102.079 349.228 102.199L345.815 104.039C345.404 104.261 345.104 104.676 345.004 105.166L342.678 116.408C342.414 117.692 343.549 118.79 344.681 118.343L362.43 111.335C363.034 111.097 363.435 110.47 363.435 109.768V104.073C363.435 103.171 362.78 102.433 361.957 102.407Z" fill="#8E8E8E"/>
<rect x="343.186" y="112.984" width="21.388" height="1" fill="black"/>
<rect x="351.033" y="100.702" width="1" height="12.544" fill="black"/>
<path d="M368.844 102.64H367.084C366.537 102.64 366.095 103.083 366.095 103.629V111.488C366.095 112.034 366.537 112.477 367.084 112.477H368.844C369.39 112.477 369.833 112.034 369.833 111.488V103.629C369.833 103.083 369.39 102.64 368.844 102.64Z" fill="#3F3F3F"/>
<path d="M365.764 111.772V103.345C365.764 102.702 366.285 102.181 366.928 102.181H368.999C369.642 102.181 370.163 102.702 370.163 103.345V111.772C370.163 112.415 369.642 112.936 368.999 112.936H366.928C366.285 112.936 365.764 112.415 365.764 111.772Z" fill="black"/>
<path d="M368.844 102.64H367.084C366.537 102.64 366.095 103.083 366.095 103.629V111.488C366.095 112.034 366.537 112.477 367.084 112.477H368.844C369.39 112.477 369.833 112.034 369.833 111.488V103.629C369.833 103.083 369.39 102.64 368.844 102.64Z" fill="#8E8E8E"/>
<path d="M225.265 97.1426H224.208C223.951 97.1426 223.726 97.3146 223.657 97.5616L222.225 102.759C222.208 102.82 222.201 102.885 222.205 102.948L222.322 104.735C222.37 105.47 222.98 106.041 223.717 106.041H225.265C225.58 106.041 225.836 105.786 225.836 105.47V97.7136C225.836 97.3986 225.58 97.1426 225.265 97.1426Z" fill="#E8A600"/>
<path d="M111.938 270.712C111.938 270.712 115.9 275.46 115.455 277.338C114.993 279.29 118.818 283.706 119.459 284.585C120.1 285.465 117.458 286.92 117.023 287.708C116.588 288.497 116.843 296.725 114.575 297.571C112.307 298.418 100.849 297.523 97.2101 295.301C93.5711 293.079 87.6991 280.268 88.1201 274.104C88.5421 267.94 103.316 261.563 111.938 270.712Z" fill="#EEA886"/>
<path d="M107.302 295.794C107.302 295.794 107.218 296.493 107.106 297.577C107.064 298.031 107.008 298.549 106.96 299.115C106.931 299.451 106.903 299.808 106.868 300.171C106.862 300.269 106.848 300.367 106.841 300.465C106.827 300.633 106.813 300.8 106.799 300.975C106.743 301.765 106.687 302.584 106.645 303.394C106.54 305.486 106.526 307.485 106.75 308.596C107.351 311.645 94.2188 298.78 94.2188 298.78C94.2188 298.78 95.3307 288.802 94.7927 277.586C94.2477 266.371 107.302 295.794 107.302 295.794Z" fill="#EEA886"/>
<path d="M112.944 271.864C112.944 271.864 115.263 266.393 108.111 262.595C99.6906 258.124 90.7636 269.35 89.5796 270.011C88.3956 270.672 83.0116 276.73 88.2796 284.76C94.9276 294.893 94.5766 294.553 94.5766 294.553C94.5766 294.553 95.5676 289.196 95.5236 287.754C95.4436 285.118 102.035 282.687 102.035 282.687C102.035 282.687 99.1956 278.908 102.353 277.212C105.51 275.517 109.202 271.493 112.944 271.864Z" fill="#3A3F47"/>
<path d="M98.4042 281.731C97.9012 281.024 96.0532 277.901 93.6782 280.644C91.3022 283.386 97.6732 288.513 98.1992 288.462C98.7262 288.412 102.64 287.682 98.4042 281.731Z" fill="#EEA886"/>
<path d="M107.106 297.577C107.064 298.031 107.008 298.55 106.959 299.115C106.931 299.452 106.903 299.807 106.868 300.171C101.848 299.836 97.9685 295.836 97.7305 295.591C99.7715 297.213 107.106 297.577 107.106 297.577Z" fill="#A77860"/>
<path d="M85.7549 279.814C87.5239 279.307 89.9709 278.53 93.1239 277.418C91.7929 279.117 88.4919 283.248 87.6599 283.556C86.8729 283.848 86.0959 281.175 85.7549 279.814Z" fill="#F5F5F5"/>
<path d="M81.2521 279.266L83.1691 278.258C83.0981 278.07 83.0301 277.88 82.9651 277.688C82.0441 274.979 80.4531 271.654 81.1451 267.732C82.2441 261.498 86.5321 258.067 92.9371 255.889C97.8051 254.235 102.895 254.856 107.055 257.181L109.151 258.032L109.604 258.918L113.617 266.754L115.028 266.724L119.399 266.633L120.547 267.041L115.613 268.849L109.01 271.269C109.01 271.269 101.02 274.844 94.1821 277.291C93.8461 277.411 84.6291 280.37 84.1611 280.486C83.3841 280.68 82.8501 280.785 82.5551 280.813C81.5441 280.911 81.2521 279.266 81.2521 279.266Z" fill="#FFBB00"/>
<path d="M113.617 266.753C113.617 266.753 109.446 260.356 106.68 258.75C103.913 257.144 99.0106 254.386 91.8646 257.5C84.7186 260.615 80.9746 269.013 80.9746 269.013C80.9746 269.013 80.9966 271.98 81.6946 274.036C82.3926 276.092 81.0836 274.456 83.7446 267.887C86.4036 261.319 90.0616 258.393 93.1496 257.59C96.2376 256.787 101.924 255.604 106.68 259.643C111.436 263.681 113.617 266.753 113.617 266.753Z" fill="#E8A600"/>
<path d="M113.617 266.753C113.617 266.753 113.819 267.496 112.302 268.299C110.785 269.102 108.464 270.173 108.464 270.173L107.302 267.317C107.302 267.317 105.93 266.546 105.546 266.753C105.162 266.96 108.302 262.179 106.412 260.178C104.521 258.177 103.357 257.642 103.357 257.642C103.357 257.642 106.701 258.235 108.491 260.227C110.281 262.219 113.617 266.753 113.617 266.753Z" fill="#E8A600"/>
<path d="M83.1689 278.258C83.1689 278.258 83.5649 277.986 85.0819 278.051C86.5999 278.116 85.7539 274.87 85.7539 274.87L87.2239 274.189C87.2239 274.189 84.0809 272.059 83.8329 270.174C83.5849 268.288 84.1009 265.477 84.1009 265.477C84.1009 265.477 80.7129 269.265 81.0669 271.155C81.4199 273.046 83.1689 278.258 83.1689 278.258Z" fill="#E8A600"/>
<path d="M148.572 324.015C148.572 324.015 149.403 322.093 150.078 321.348C151.243 320.063 151.972 317.364 154.462 317.191C156.949 317.019 159.718 324.765 159.414 326.354C159.11 327.944 155.862 329.202 150.623 328.921C145.384 328.64 148.572 324.015 148.572 324.015Z" fill="#EEA886"/>
<path d="M153.633 317.37C153.633 317.37 156.898 315.607 160.775 314.095C164.176 312.767 168.585 311.593 168.93 312.446C169.452 313.739 165.729 314.287 162.447 315.832C159.424 317.253 160.262 317.485 160.262 317.485C160.262 317.485 160.027 317.406 163.626 316.503C167.495 315.533 171.693 314.652 171.988 315.345C172.355 316.203 172.329 316.34 170.982 316.924C171.829 316.757 171.997 316.967 172.102 317.316C172.65 319.123 167.191 321.443 165.023 322.363C166.693 321.667 167.995 321.337 167.615 322.658C167.18 324.171 159.313 327.099 156.596 328.421C153.635 329.863 153.633 317.37 153.633 317.37Z" fill="#EEA886"/>
<path d="M94.3719 297.202C94.3719 297.202 102.412 304.775 107.198 306.446L108.11 313.7L92.8389 299.138L94.3719 297.202Z" fill="#EDDAD3"/>
<path d="M110.824 349.405L89.9512 320.229C92.4822 324.013 109.77 345.188 110.595 346.264C110.601 347.829 110.771 347.763 110.824 349.405Z" fill="#8F5C28"/>
<path d="M198.311 264.041L194.831 270.643C194.775 270.749 194.794 270.879 194.877 270.965L195.351 271.458L200.393 265.485L198.311 264.041Z" fill="#8F9F9F"/>
<path d="M199.048 251.76C199.048 253.836 200.73 255.519 202.806 255.519C204.881 255.519 206.564 253.836 206.564 251.76C206.564 249.684 204.881 248.002 202.806 248.002C200.73 248.002 199.048 249.684 199.048 251.76Z" fill="#8F9F9F"/>
<line x1="216.35" y1="155.463" x2="216.35" y2="214.051" stroke="#303940" stroke-width="10"/>
<line x1="199.678" y1="155.463" x2="199.678" y2="214.051" stroke="#303940" stroke-width="10"/>
<path d="M189.842 209.746C190.111 208.987 190.829 208.48 191.634 208.48H201.94H204.087H214.393C215.198 208.48 215.916 208.987 216.185 209.746L219.935 220.333C220.065 220.7 220.079 221.098 219.975 221.474L212.414 248.821C212.187 249.645 211.437 250.216 210.582 250.216H203.663H202.364H195.445C194.59 250.216 193.84 249.645 193.613 248.821L186.052 221.474C185.948 221.098 185.962 220.7 186.092 220.333L189.842 209.746Z" fill="#4E565C"/>
<path d="M114.872 365.592C114.331 360.98 113.679 355.155 113.142 349.593C112.774 345.78 114.454 326.811 112.369 320.288C110.283 313.763 101.9 303.948 101.9 303.948L92.8404 299.137C92.8404 299.137 80.1104 312.435 80.0004 335.986C79.9674 343.168 80.2434 353.762 83.5424 365.592H114.872Z" fill="#CFBEB6"/>
<path d="M76.5205 347.198C76.6505 349.201 76.8125 351.216 77.0025 353.231C77.3965 357.396 77.9075 361.551 78.4885 365.593H112.394C112.276 363.744 112.107 361.861 111.879 359.954C111.744 358.835 111.616 357.708 111.493 356.57C111.403 355.716 111.314 354.857 111.23 353.992C111.177 353.459 111.125 352.922 111.078 352.386C110.609 347.238 110.28 341.934 110.169 336.619L110.167 336.617C110.131 334.899 110.117 333.177 110.128 331.458C110.135 330.509 110.148 329.559 110.172 328.614C110.5 314.64 93.1835 299.372 92.8375 299.138C80.5425 304.487 75.1465 325.994 76.5205 347.193V347.198Z" fill="#FAA146"/>
<path d="M114.849 364.511L115.183 365.592H117.667L117.778 364.75C117.778 364.75 117.017 347.252 116.001 340.135C114.978 332.959 114.53 323.848 108.794 312.031L107.932 312.283C107.932 312.283 111.186 325.162 112.425 341.366C113.463 354.923 114.849 364.511 114.849 364.511Z" fill="#D44040"/>
<path d="M93.0761 324.474C90.8081 321.991 82.1861 310.156 88.7871 305.213C95.3871 300.271 101.492 308.021 106.066 313.896C110.852 320.044 121.084 336.552 122.684 336.374C124.285 336.196 133.318 331.588 135.115 330.447C136.912 329.305 148.072 321.835 149.019 321.327C149.943 320.832 154.437 331.987 154.437 331.987C154.437 331.987 126.04 350.137 119.915 352.173C113.79 354.209 93.0761 324.474 93.0761 324.474Z" fill="#FAA146"/>
<rect x="192.114" y="249.507" width="6.57479" height="61.8201" transform="rotate(-48.8665 192.114 249.507)" fill="#303940"/>
<rect x="187.789" y="254.459" width="6.57479" height="61.8201" transform="rotate(-48.8665 187.789 254.459)" fill="#FFBB00"/>
<rect x="183.464" y="259.411" width="6.57479" height="61.8201" transform="rotate(-48.8665 183.464 259.411)" fill="#303940"/>
<rect x="179.139" y="264.363" width="6.57479" height="61.8201" transform="rotate(-48.8665 179.139 264.363)" fill="#FFBB00"/>
<rect x="174.812" y="269.315" width="6.57479" height="61.8201" transform="rotate(-48.8665 174.812 269.315)" fill="#303940"/>
<rect x="170.488" y="274.268" width="6.57517" height="61.8198" transform="rotate(-48.8665 170.488 274.268)" fill="#FFBB00"/>
<rect x="166.162" y="279.221" width="6.57479" height="61.8201" transform="rotate(-48.8665 166.162 279.221)" fill="#303940"/>
<rect x="161.837" y="284.173" width="6.57479" height="61.8201" transform="rotate(-48.8665 161.837 284.173)" fill="#FFBB00"/>
<path d="M192.133 270.201L192.139 270.167C195.008 270.822 197.18 272.413 198.46 274.973C198.491 275.036 198.528 275.095 198.572 275.148L198.767 275.394C203.102 280.773 209.985 272.974 204.221 269.336C204.162 269.299 204.099 269.27 204.034 269.246C201.034 268.14 198.425 265.448 197.912 262.299C197.476 259.62 197.742 256.553 197.92 255.076C197.981 254.569 198.409 254.188 198.919 254.188H206.634C207.19 254.188 207.641 254.638 207.641 255.194C207.642 256.572 207.644 258.878 207.644 258.878C207.644 260.086 208.363 261.125 209.396 261.592V261.596C220.889 267.094 216.882 284.797 204.083 284.738C199.262 284.762 194.837 281.829 192.929 277.454C192.917 277.428 192.907 277.4 192.897 277.372C192.388 275.879 191.752 274.395 190.545 273.326V273.284C190.123 272.962 189.849 272.454 189.849 271.883C189.829 270.716 191.028 269.84 192.133 270.201Z" fill="#8F9F9F"/>
<path d="M205.149 258.764C205.149 260.473 206.808 261.981 208.693 262.484C210.809 263.048 215.347 265.864 215.555 271.432C215.806 278.168 211.231 283.798 204.596 284.125C197.104 284.494 192.75 276.955 192.75 276.955V276.956C192.8 277.094 192.85 277.233 192.897 277.372C192.907 277.4 192.917 277.428 192.929 277.455C194.837 281.828 199.262 284.762 204.083 284.737C216.882 284.796 220.889 267.093 209.396 261.597V261.592C208.363 261.125 207.644 260.086 207.644 258.878C207.644 258.878 207.641 256.003 207.641 255.193C207.641 254.384 206.819 254.213 206.819 254.213C206.819 254.213 207.298 254.711 206.475 254.975C205.89 255.162 205.149 255.193 205.149 255.193V258.764Z" fill="#758988"/>
<path d="M192.133 270.201L192.139 270.167C195.008 270.822 197.18 272.413 198.46 274.973C198.491 275.036 198.528 275.095 198.572 275.148L198.767 275.394C203.102 280.773 209.985 272.974 204.221 269.336C204.162 269.299 204.099 269.27 204.034 269.246C201.034 268.14 198.425 265.448 197.912 262.299C197.476 259.62 197.742 256.553 197.92 255.076C197.981 254.569 198.409 254.188 198.919 254.188H206.634C207.19 254.188 207.641 254.638 207.641 255.194C207.642 256.572 207.644 258.878 207.644 258.878C207.644 260.086 208.363 261.125 209.396 261.592V261.596C220.889 267.094 216.882 284.797 204.083 284.738C199.262 284.762 194.837 281.829 192.929 277.454C192.917 277.428 192.907 277.4 192.897 277.372C192.388 275.879 191.752 274.395 190.545 273.326V273.284C190.123 272.962 189.849 272.454 189.849 271.883C189.829 270.716 191.028 269.84 192.133 270.201Z" fill="#8F9F9F"/>
<path d="M207.87 155.135C208.546 150.743 202.392 147.023 197.731 146.572C195.507 146.357 193.19 146.66 191.093 145.892C186.549 144.226 184.819 138.294 180.39 136.342C177.08 134.883 173.223 136.074 169.965 137.648C166.708 139.223 163.482 141.218 159.869 141.392C156.725 141.542 153.334 140.323 150.562 141.814C148.497 142.924 147.387 145.265 145.478 146.627C143.61 147.959 141.197 148.209 138.905 148.297C136.613 148.385 134.241 148.37 132.14 149.292C130.039 150.213 128.279 152.391 128.675 154.651L207.87 155.135Z" fill="#434B51"/>
<line x1="574.375" y1="156.404" x2="105.984" y2="156.404" stroke="#303940" stroke-width="2"/>
<line x1="387.457" y1="366.593" x2="25.294" y2="366.593" stroke="#303940" stroke-width="2"/>
<path d="M323.656 445.745L397.529 257.488C397.866 256.63 398.536 255.945 399.387 255.59L431.739 242.098C432.037 241.973 432.351 241.892 432.672 241.856L628.385 220.045C630.401 219.82 632.164 221.398 632.164 223.427V556.762C632.164 558.641 630.641 560.165 628.761 560.165H336.13C334.362 560.165 332.889 558.811 332.739 557.049L323.433 447.276C323.389 446.755 323.465 446.231 323.656 445.745Z" fill="#FFBB00"/>
<path d="M427.972 256.146L379.785 434.659V560.165H333.003L323.366 446.484L398.056 256.146H427.972Z" fill="#FFC32C"/>
<path d="M415.411 279.046C413.311 276.297 410.122 274.721 406.662 274.721H390.767L326.694 438.002L361.076 433.184L374.064 429.671C376.209 429.09 377.905 427.397 378.479 425.292L417.286 288.623C418.194 285.285 417.511 281.795 415.411 279.046Z" fill="#3F3F3F"/>
<path d="M323.366 446.484L379.785 434.658L387.816 560.165H333.003L323.366 446.484Z" fill="#E8A600"/>
<path d="M328.343 433.801L360.287 429.326L373.036 425.875C373.845 425.656 374.476 425.026 374.696 424.219L413.492 287.59C414.717 283.089 411.328 278.654 406.663 278.654H389.224L328.343 433.801Z" fill="#8E8E8E"/>
<path d="M444.076 283.17L407.969 414.527C406.791 418.812 410.694 422.794 415.174 421.877L556.278 392.984C559.117 392.403 561.149 389.976 561.149 387.165V286.765C561.149 283.527 558.475 280.884 555.132 280.818L450.135 278.753C447.306 278.698 444.804 280.522 444.076 283.17Z" fill="#8E8E8E"/>
<path d="M555.206 276.887L450.009 274.82C445.52 274.82 441.561 277.815 440.382 282.104L404.275 413.461C403.472 416.38 404.043 419.45 405.841 421.882C407.719 424.424 410.723 425.941 413.876 425.941C414.558 425.941 415.248 425.871 415.925 425.732L557.03 396.84C561.641 395.896 564.987 391.827 564.987 387.165V286.765C564.987 281.424 560.6 276.993 555.206 276.887Z" fill="#3F3F3F"/>
<path d="M444.076 283.17L407.969 414.527C406.791 418.812 410.694 422.794 415.174 421.877L556.278 392.984C559.117 392.403 561.149 389.976 561.149 387.165V286.765C561.149 283.527 558.475 280.884 555.132 280.818L450.135 278.753C447.306 278.698 444.804 280.522 444.076 283.17Z" fill="white"/>
<path d="M383.433 393.449H344.178L328.343 433.801L360.287 429.325L373.036 425.875C373.844 425.657 374.476 425.026 374.696 424.218L383.433 393.449Z" fill="#3F3F3F"/>
<rect x="452.323" y="278.752" width="3.03799" height="136.446" fill="#3F3F3F"/>
<path d="M391.673 386.249H375.193C373.195 386.249 371.574 384.629 371.574 382.63V288.296C371.574 286.297 373.195 284.677 375.193 284.677H391.673C393.672 284.677 395.292 286.297 395.292 288.296V382.63C395.292 384.629 393.672 386.249 391.673 386.249Z" fill="#3F3F3F"/>
<path d="M562.276 456.736H519.644C517.065 456.736 514.968 454.638 514.968 452.059V446.772C514.968 444.194 517.065 442.096 519.644 442.096H562.276C564.855 442.096 566.953 444.194 566.953 446.772V452.059C566.953 454.638 564.855 456.736 562.276 456.736ZM519.644 442.882C517.499 442.882 515.754 444.628 515.754 446.772V452.059C515.754 454.204 517.499 455.949 519.644 455.949H562.276C564.421 455.949 566.167 454.204 566.167 452.059V446.772C566.167 444.628 564.421 442.882 562.276 442.882H519.644Z" fill="#E8A600"/>
<path d="M348.657 549.152L326.537 550.868C326.178 550.896 325.864 550.627 325.836 550.268L320.967 487.512C320.939 487.153 321.208 486.839 321.567 486.811L343.687 485.095C344.046 485.067 344.36 485.336 344.388 485.695L349.257 548.451C349.285 548.81 349.016 549.124 348.657 549.152Z" fill="#8E8E8E"/>
<path d="M588.762 610.742L462.907 606.994L334.148 591.612C333.333 591.524 332.649 590.957 332.412 590.171L324.159 562.797C323.764 561.486 324.745 560.166 326.114 560.166H590.804V608.7C590.804 609.828 589.89 610.742 588.762 610.742Z" fill="black"/>
<path d="M512.621 549.282H393.285L393.263 548.912L386.465 434.616L386.483 434.552L435.304 261.796H575.812L570.976 492.028L570.686 492.102C542.629 499.271 520.411 521.071 512.701 548.993L512.621 549.282ZM394.026 548.496H512.023C519.854 520.536 542.106 498.704 570.202 491.415L575.009 262.583H435.899L387.257 434.702L394.026 548.496Z" fill="#E8A600"/>
<path d="M616.596 385.852H586.696C586.211 385.852 585.818 385.457 585.818 384.972V283.566C585.818 283.08 586.211 282.688 586.696 282.688H616.596C617.081 282.688 617.474 283.08 617.474 283.566V384.972C617.474 385.457 617.081 385.852 616.596 385.852Z" fill="#8E8E8E"/>
<path d="M582.171 388.416V280.121C582.171 279.524 582.655 279.04 583.252 279.04H620.04C620.637 279.04 621.121 279.524 621.121 280.121V388.416C621.121 389.013 620.637 389.497 620.04 389.497H583.252C582.655 389.497 582.171 389.013 582.171 388.416Z" fill="#E8A600"/>
<path d="M616.596 385.852H586.696C586.211 385.852 585.818 385.457 585.818 384.972V283.566C585.818 283.08 586.211 282.688 586.696 282.688H616.596C617.081 282.688 617.474 283.08 617.474 283.566V384.972C617.474 385.457 617.081 385.852 616.596 385.852Z" fill="#FFBB00"/>
<rect x="491.688" y="488.828" width="575.031" height="120.121" fill="#3F3F3F"/>
<path d="M692.63 604.74C692.63 648.171 657.422 683.378 613.992 683.378C570.56 683.378 535.354 648.171 535.354 604.74C535.354 561.309 570.56 526.102 613.992 526.102C657.422 526.102 692.63 561.309 692.63 604.74Z" fill="black"/>
<path d="M659.751 604.74C659.751 630.012 639.264 650.499 613.992 650.499C588.72 650.499 568.232 630.012 568.232 604.74C568.232 579.468 588.72 558.981 613.992 558.981C639.264 558.981 659.751 579.468 659.751 604.74Z" fill="#8E8E8E"/>
<path d="M648.619 604.74C648.619 623.864 633.116 639.367 613.992 639.367C594.868 639.367 579.365 623.864 579.365 604.74C579.365 585.616 594.868 570.113 613.992 570.113C633.116 570.113 648.619 585.616 648.619 604.74Z" fill="#B2B2B2"/>
<path d="M462.688 394.43L463.47 394.142C464.752 393.668 465.408 392.243 464.934 390.961L444.442 335.534C443.967 334.251 442.544 333.595 441.261 334.069L440.479 334.358C439.197 334.833 438.542 336.258 439.015 337.539L459.508 392.967C459.982 394.25 461.406 394.905 462.688 394.43Z" fill="#303940"/>
<path d="M419.782 361.033L446.384 351.199L456.219 377.801L419.782 410.887L411.322 395.853L419.782 361.033Z" fill="#303940"/>
<path d="M463.144 368.599C463.144 368.599 462.176 366.363 461.391 365.496C460.034 363.999 459.186 360.858 456.291 360.658C453.394 360.458 450.173 369.471 450.526 371.322C450.88 373.172 454.659 374.635 460.756 374.308C466.854 373.981 463.144 368.599 463.144 368.599Z" fill="#EEA886"/>
<path d="M457.255 360.867C457.255 360.867 453.454 358.816 448.943 357.055C444.984 355.51 439.856 354.145 439.454 355.136C438.845 356.641 443.178 357.28 446.999 359.076C450.515 360.732 449.541 361 449.541 361C449.541 361 449.814 360.908 445.625 359.858C441.122 358.729 436.237 357.704 435.894 358.51C435.467 359.509 435.499 359.669 437.065 360.348C436.079 360.153 435.884 360.398 435.762 360.804C435.124 362.908 441.476 365.607 443.999 366.679C442.056 365.867 440.542 365.483 440.984 367.022C441.49 368.782 450.645 372.189 453.806 373.727C457.252 375.406 457.255 360.867 457.255 360.867Z" fill="#EEA886"/>
<path d="M515.999 343.064C515.999 343.064 507.7 356.67 505.273 364.262C502.847 371.854 504.802 393.929 504.374 398.365C503.045 412.129 501.108 427.283 501.108 427.283L528.928 445.054C528.928 445.054 533.922 433.39 538.276 418.867C542.631 404.343 542.982 391.267 542.94 382.531C542.813 355.124 527.999 339.65 527.999 339.65L515.999 343.064Z" fill="#8F9F9F"/>
<path d="M505.774 306.571C505.774 306.571 501.164 312.096 501.681 314.282C502.219 316.553 497.767 321.692 497.022 322.715C496.275 323.739 499.35 325.432 499.857 326.35C500.364 327.267 500.065 336.843 502.706 337.827C505.345 338.812 518.679 337.77 522.914 335.186C527.149 332.599 533.981 317.692 533.491 310.519C533 303.346 515.808 295.924 505.774 306.571Z" fill="#EEA886"/>
<path d="M511.17 335.758C511.17 335.758 511.268 336.572 511.398 337.833C511.446 338.361 511.511 338.964 511.569 339.623C511.602 340.013 511.633 340.428 511.675 340.852C511.682 340.965 511.699 341.079 511.707 341.194C511.724 341.388 511.74 341.584 511.756 341.788C511.821 342.706 511.886 343.659 511.935 344.602C512.057 347.035 512.073 349.362 511.813 350.657C511.113 354.205 526.394 339.233 526.394 339.233C526.394 339.233 525.1 327.621 525.726 314.57C526.361 301.518 511.17 335.758 511.17 335.758Z" fill="#EEA886"/>
<path d="M504.604 307.911C504.604 307.911 501.906 301.545 510.229 297.125C520.026 291.922 530.414 304.985 531.793 305.755C533.172 306.524 539.435 313.573 533.305 322.919C525.57 334.71 525.978 334.314 525.978 334.314C525.978 334.314 524.825 328.081 524.876 326.402C524.968 323.334 517.298 320.506 517.298 320.506C517.298 320.506 520.603 316.108 516.93 314.134C513.255 312.161 508.959 307.48 504.604 307.911Z" fill="#3A3F47"/>
<path d="M521.524 319.393C522.11 318.57 524.26 314.936 527.024 318.128C529.788 321.318 522.375 327.285 521.762 327.227C521.149 327.168 516.594 326.319 521.524 319.393Z" fill="#EEA886"/>
<path d="M545.549 404.472C545.549 404.472 539.298 431.466 549.088 462.955C550.283 466.799 521.991 462.357 521.991 462.357L545.549 404.472Z" fill="#FAA146"/>
<path d="M509.61 460.38C509.61 460.38 529.705 464.791 535.35 462.797C535.35 462.797 543.562 432.921 546.427 402.596C546.65 400.252 546.838 397.908 546.989 395.576V395.572C548.587 370.902 542.308 345.874 528.001 339.65C527.598 339.922 507.448 357.689 507.829 373.951C507.858 375.05 507.873 376.155 507.88 377.261C507.893 379.26 507.877 381.264 507.834 383.263L507.832 383.266C507.704 389.452 507.321 395.623 506.776 401.614C506.72 402.239 506.659 402.863 506.599 403.482C506.5 404.489 506.398 405.489 506.291 406.483C506.148 407.807 505.999 409.119 505.843 410.421C502.591 437.56 509.61 460.38 509.61 460.38Z" fill="#8F9F9F"/>
<path d="M527.724 369.133C530.363 366.243 540.396 352.471 532.716 346.719C525.035 340.968 517.929 349.986 512.607 356.823C507.039 363.978 495.131 383.188 493.269 382.981C491.406 382.774 480.895 377.412 478.803 376.084C476.713 374.756 463.726 366.062 462.624 365.471C461.548 364.895 456.318 377.875 456.318 377.875C456.318 377.875 489.364 398.997 496.491 401.366C503.619 403.736 527.724 369.133 527.724 369.133Z" fill="#8F9F9F"/>
<path d="M506.943 399.7L531.361 364.194C528.416 368.597 508.299 393.239 507.337 394.492C507.048 397.376 506.042 397.916 506.943 399.7Z" fill="#303940"/>
<path d="M511.398 337.833C511.446 338.362 511.512 338.964 511.568 339.624C511.601 340.014 511.634 340.429 511.674 340.852C517.517 340.462 522.033 335.807 522.31 335.522C519.933 337.41 511.398 337.833 511.398 337.833Z" fill="#A77860"/>
<path d="M536.244 317.162C534.185 316.572 531.338 315.667 527.668 314.375C529.218 316.351 533.059 321.158 534.027 321.517C534.942 321.857 535.847 318.746 536.244 317.162Z" fill="#F5F5F5"/>
<path d="M541.484 316.524L539.253 315.352C539.335 315.132 539.415 314.912 539.491 314.688C540.563 311.536 542.415 307.666 541.609 303.102C540.33 295.848 535.34 291.855 527.886 289.321C522.221 287.395 516.298 288.118 511.457 290.825L509.018 291.814L508.49 292.846L503.821 301.964L502.179 301.929L497.092 301.823L495.758 302.299L501.498 304.403L509.182 307.218C509.182 307.218 518.48 311.378 526.438 314.226C526.828 314.366 537.554 317.809 538.099 317.944C539.002 318.171 539.625 318.292 539.969 318.326C541.144 318.439 541.484 316.524 541.484 316.524Z" fill="#FFBB00"/>
<path d="M503.821 301.964C503.821 301.964 508.675 294.52 511.894 292.651C515.113 290.782 520.818 287.573 529.133 291.197C537.448 294.821 541.806 304.594 541.806 304.594C541.806 304.594 541.781 308.046 540.969 310.439C540.156 312.832 541.679 310.927 538.584 303.284C535.488 295.64 531.232 292.236 527.638 291.301C524.044 290.366 517.428 288.99 511.894 293.689C506.359 298.389 503.821 301.964 503.821 301.964Z" fill="#E8A600"/>
<path d="M503.821 301.964C503.821 301.964 503.586 302.828 505.351 303.763C507.117 304.698 509.817 305.944 509.817 305.944L511.17 302.62C511.17 302.62 512.766 301.723 513.213 301.964C513.659 302.205 510.005 296.642 512.206 294.313C514.406 291.983 515.76 291.362 515.76 291.362C515.76 291.362 511.868 292.052 509.785 294.37C507.703 296.688 503.821 301.964 503.821 301.964Z" fill="#E8A600"/>
<path d="M539.253 315.351C539.253 315.351 538.792 315.034 537.026 315.11C535.261 315.186 536.245 311.408 536.245 311.408L534.535 310.617C534.535 310.617 538.192 308.138 538.48 305.943C538.769 303.748 538.169 300.478 538.169 300.478C538.169 300.478 542.111 304.885 541.7 307.086C541.288 309.286 539.253 315.351 539.253 315.351Z" fill="#E8A600"/>
<path d="M414.125 392.129L407.968 414.527C406.79 418.812 410.694 422.794 415.173 421.877L556.277 392.984C559.117 392.403 561.148 389.976 561.148 387.165V380.226L414.125 392.129Z" fill="#3F3F3F"/>
<path d="M184.783 437.343C185.849 429.597 174.917 423.224 166.702 422.562C162.785 422.247 158.716 422.845 155.004 421.552C146.964 418.749 143.752 408.361 135.906 405.052C130.04 402.578 123.287 404.78 117.601 407.643C111.915 410.504 106.295 414.106 99.9418 414.513C94.4158 414.867 88.4148 412.817 83.5798 415.517C79.9768 417.528 78.0898 421.68 74.7688 424.129C71.5198 426.525 67.2828 427.033 63.2518 427.252C59.2208 427.471 55.0478 427.512 51.3768 429.192C47.7068 430.873 44.6698 434.754 45.4328 438.718L184.783 437.343Z" fill="#434B51"/>
<line x1="472.564" y1="577.935" x2="25.2935" y2="577.935" stroke="#303940" stroke-width="2"/>
<path d="M70.3008 399.568V438.149C70.3008 445.203 76.0188 450.921 83.0728 450.921H286.566" stroke="white" stroke-linecap="round" stroke-dasharray="3 6"/>
<path d="M285.03 456.03C284.873 455.783 284.946 455.453 285.194 455.295L292.061 450.922L285.194 446.547C284.946 446.389 284.873 446.06 285.03 445.812C285.188 445.565 285.519 445.494 285.766 445.649L293.338 450.472C293.492 450.57 293.585 450.739 293.585 450.922C293.585 451.103 293.492 451.273 293.338 451.37L285.766 456.193C285.676 456.249 285.578 456.276 285.48 456.276C285.304 456.276 285.132 456.189 285.03 456.03Z" fill="white"/>
<path d="M495.052 168.556V199.277C495.052 204.6 489.293 208.914 482.19 208.914H244.746" stroke="white" stroke-linecap="round" stroke-dasharray="3 6"/>
<path d="M246.484 204.919C246.649 205.112 246.572 205.37 246.312 205.493L239.146 208.914L246.312 212.334C246.572 212.458 246.649 212.716 246.484 212.909C246.319 213.102 245.973 213.158 245.716 213.037L237.813 209.265C237.654 209.189 237.557 209.056 237.557 208.914C237.557 208.772 237.654 208.639 237.813 208.563L245.716 204.791C245.809 204.747 245.912 204.726 246.014 204.726C246.198 204.726 246.378 204.795 246.484 204.919Z" fill="white"/>
<path d="M490.411 108.79C490.411 108.79 485.085 117.522 483.527 122.395C481.97 127.267 483.225 141.435 482.95 144.282C482.098 153.116 480.853 162.842 480.853 162.842L498.709 174.247C498.709 174.247 501.914 166.762 504.709 157.44C507.504 148.119 507.728 139.727 507.703 134.12C507.621 116.53 498.113 106.598 498.113 106.598L490.411 108.79Z" fill="#CFBEB6"/>
<path d="M486.311 184.085C486.311 184.085 499.209 186.916 502.832 185.636C502.832 185.636 508.102 166.461 509.941 146.998C510.083 145.494 510.205 143.989 510.301 142.493V142.49C511.327 126.657 507.297 110.594 498.115 106.599C497.856 106.774 484.923 118.177 485.169 128.613C485.187 129.32 485.196 130.028 485.202 130.738C485.209 132.021 485.199 133.307 485.172 134.59L485.17 134.592C485.088 138.562 484.843 142.522 484.492 146.369C484.456 146.769 484.417 147.17 484.38 147.567C484.316 148.213 484.249 148.855 484.181 149.493C484.09 150.343 483.994 151.185 483.894 152.021C481.807 169.439 486.311 184.085 486.311 184.085Z" fill="#FAA146"/>
<path d="M486.841 116.417C486.841 116.417 484.411 126.036 483.485 138.138C482.71 148.264 481.675 155.424 481.675 155.424L480.126 160.437L479.488 155.603C479.488 155.603 480.057 142.535 480.814 137.219C481.579 131.86 481.913 125.055 486.198 116.228L486.841 116.417Z" fill="#D44040"/>
<path d="M487.112 116.423C487.112 116.423 486.819 116.704 486.405 116.766C485.99 116.827 485.397 116.165 487.516 113.368L487.112 116.423Z" fill="#D44040"/>
<path d="M496.969 105.153C496.969 105.153 490.964 110.809 487.39 112.057L486.708 117.474L498.113 106.599L496.969 105.153Z" fill="#EDDAD3"/>
<path d="M456.662 124.177L456.387 124.266C455.936 124.411 455.453 124.164 455.307 123.713L449.825 106.728C449.679 106.277 449.927 105.793 450.377 105.648L450.652 105.559C451.103 105.413 451.586 105.661 451.732 106.112L457.215 123.097C457.36 123.548 457.113 124.031 456.662 124.177Z" fill="#F5F5F5"/>
<path d="M461.708 124.822C461.708 124.822 461.662 123.259 461.398 122.555C460.945 121.341 461.185 119.267 459.505 118.46C457.825 117.653 453.765 122.264 453.537 123.452C453.31 124.639 455.216 126.408 458.929 127.66C462.643 128.912 461.708 124.822 461.708 124.822Z" fill="#EEA886"/>
<path d="M460.031 118.814C460.031 118.814 458.252 116.689 455.979 114.568C453.985 112.708 451.25 110.677 450.776 111.173C450.055 111.926 452.489 113.334 454.34 115.312C456.044 117.133 455.399 117.063 455.399 117.063C455.399 117.063 455.584 117.073 453.335 115.452C450.918 113.711 448.248 111.941 447.852 112.34C447.361 112.834 447.341 112.937 448.114 113.714C447.572 113.363 447.399 113.463 447.228 113.676C446.35 114.779 449.497 117.896 450.747 119.134C449.782 118.189 448.969 117.6 448.868 118.623C448.752 119.793 453.403 123.997 454.923 125.664C456.579 127.483 460.031 118.814 460.031 118.814Z" fill="#EEA886"/>
<path d="M498.504 130.912C500.763 129.815 510.015 123.983 506.799 118.731C503.584 113.479 497.208 117.17 492.41 119.984C487.392 122.929 477.32 141.113 476.259 140.547C475.198 139.982 470.202 134.29 469.271 133.002C468.338 131.714 462.657 123.448 462.14 122.834C461.636 122.235 455.436 128.735 455.436 128.735C455.436 128.735 470.147 149.153 473.818 152.276C481.365 158.695 498.504 130.912 498.504 130.912Z" fill="#FAA146"/>
<path d="M474.848 89.932C474.848 89.932 473.548 94.364 474.411 95.518C475.309 96.717 474.003 100.881 473.827 101.674C473.65 102.468 475.893 102.677 476.426 103.088C476.958 103.498 479.233 109.211 481.039 109.114C482.845 109.018 490.427 104.993 492.258 102.388C494.089 99.782 494.296 89.26 492.171 85.163C490.047 81.066 478.029 81.098 474.848 89.932Z" fill="#EEA886"/>
<path d="M485.492 105.731C485.492 105.731 485.758 106.185 486.157 106.894C486.322 107.193 486.514 107.53 486.716 107.904C486.835 108.125 486.96 108.361 487.093 108.6C487.127 108.664 487.165 108.727 487.199 108.793C487.259 108.903 487.318 109.014 487.38 109.129C487.653 109.654 487.936 110.198 488.206 110.741C488.9 112.142 489.505 113.507 489.683 114.335C490.179 116.603 496.899 105.909 496.899 105.909C496.899 105.909 491.609 97.3774 488.638 89.5354C485.672 81.6904 485.492 105.731 485.492 105.731Z" fill="#EEA886"/>
<path d="M474.501 91.0202C474.501 91.0202 471.284 87.9632 475.051 83.2322C479.487 77.6622 488.945 82.6932 489.952 82.7932C490.96 82.8942 496.451 85.4392 495.235 92.5092C493.7 101.428 493.838 101.091 493.838 101.091C493.838 101.091 491.564 97.7172 491.164 96.7162C490.434 94.8872 485.196 95.1852 485.196 95.1852C485.196 95.1852 486.016 91.7502 483.347 91.5292C480.681 91.3082 476.954 89.6522 474.501 91.0202Z" fill="#3A3F47"/>
<path d="M487.398 93.4487C487.532 92.8147 487.868 90.1257 490.312 91.2967C492.756 92.4667 489.919 97.8757 489.543 97.9977C489.168 98.1207 486.269 98.7867 487.398 93.4487Z" fill="#EEA886"/>
<path d="M486.157 106.893C486.321 107.193 486.513 107.531 486.715 107.904C486.835 108.125 486.96 108.361 487.092 108.6C490.431 106.875 491.898 102.98 491.988 102.742C491.072 104.461 486.157 106.893 486.157 106.893Z" fill="#A77860"/>
<path d="M498.413 86.6522L496.8 86.5332C496.792 86.3822 496.782 86.2322 496.77 86.0812C496.594 83.9522 496.694 81.2002 495.052 78.7202C492.442 74.7772 488.484 73.7042 483.448 74.1212C479.622 74.4372 476.32 76.3782 474.163 79.2092L472.981 80.4162L472.935 81.1582L472.52 87.7202L471.544 88.1202L468.523 89.3592L467.859 89.9802L471.776 89.7502L477.019 89.4412C477.019 89.4412 483.556 89.5102 488.969 89.1502C489.234 89.1322 496.429 88.4142 496.784 88.3552C497.374 88.2562 497.771 88.1682 497.982 88.1002C498.703 87.8662 498.413 86.6522 498.413 86.6522Z" fill="#FFBB00"/>
<path d="M472.519 87.7203C472.519 87.7203 473.471 82.0973 474.887 80.1733C476.304 78.2493 478.84 74.9003 484.662 74.9053C490.484 74.9113 495.549 79.5483 495.549 79.5483C495.549 79.5483 496.418 81.5863 496.552 83.2023C496.686 84.8193 497.095 83.3083 493.317 79.6013C489.54 75.8943 486.163 74.9803 483.809 75.3493C481.454 75.7193 477.209 76.6023 475.153 80.7843C473.098 84.9663 472.519 87.7203 472.519 87.7203Z" fill="#E8A600"/>
<path d="M472.519 87.7198C472.519 87.7198 472.602 88.2888 473.881 88.3868C475.158 88.4848 477.066 88.5278 477.066 88.5278L477.012 86.2258C477.012 86.2258 477.723 85.2888 478.047 85.3168C478.372 85.3438 474.797 83.0048 475.496 81.0708C476.195 79.1368 476.833 78.4238 476.833 78.4238C476.833 78.4238 474.719 79.8258 474.087 81.7238C473.454 83.6208 472.519 87.7198 472.519 87.7198Z" fill="#E8A600"/>
<path d="M496.8 86.5327C496.8 86.5327 496.448 86.4637 495.427 86.9607C494.408 87.4567 494.02 84.9827 494.02 84.9827L492.811 84.9537C492.811 84.9537 494.329 82.5587 493.937 81.1927C493.547 79.8277 492.355 78.0557 492.355 78.0557C492.355 78.0557 495.804 79.6407 496.125 81.0417C496.446 82.4417 496.8 86.5327 496.8 86.5327Z" fill="#E8A600"/>
</g>
</svg>
