<svg width="270" height="187" viewBox="0 0 270 187" fill="none" xmlns="http://www.w3.org/2000/svg">
<rect x="95.6445" y="0.779297" width="57.609" height="185.408" fill="#434B51"/>
<rect x="105.746" y="22.4062" width="8.20277" height="20.6749" fill="#303940"/>
<rect x="121.008" y="22.4062" width="8.20277" height="20.6749" fill="#303940"/>
<rect x="136.27" y="22.4062" width="8.20277" height="20.6749" fill="#303940"/>
<rect x="105.746" y="49.5684" width="8.20277" height="20.6749" fill="#303940"/>
<rect x="121.008" y="49.5684" width="8.20277" height="20.6749" fill="#303940"/>
<rect x="136.27" y="49.5684" width="8.20277" height="20.6749" fill="#303940"/>
<rect x="105.746" y="76.7295" width="8.20277" height="20.6749" fill="#303940"/>
<rect x="121.008" y="76.7295" width="8.20277" height="20.6749" fill="#303940"/>
<rect x="136.27" y="76.7295" width="8.20277" height="20.6749" fill="#303940"/>
<rect x="105.746" y="103.89" width="8.20277" height="20.6749" fill="#303940"/>
<rect x="121.008" y="103.89" width="8.20277" height="20.6749" fill="#303940"/>
<rect x="136.27" y="103.89" width="8.20277" height="20.6749" fill="#303940"/>
<rect x="105.746" y="131.09" width="8.20277" height="20.6749" fill="#303940"/>
<rect x="121.008" y="131.09" width="8.20277" height="20.6749" fill="#303940"/>
<rect x="136.27" y="131.09" width="8.20277" height="20.6749" fill="#303940"/>
<path d="M158.854 87.2037V186.159H204.712V68.875L158.854 87.2037Z" fill="#434B51"/>
<rect x="166.578" y="99.5137" width="12.6493" height="7.49249" fill="#303940"/>
<rect x="185.418" y="99.5137" width="12.6493" height="7.49249" fill="#303940"/>
<rect x="166.578" y="113.516" width="12.6493" height="7.49249" fill="#303940"/>
<rect x="185.418" y="113.516" width="12.6493" height="7.49249" fill="#303940"/>
<rect x="166.731" y="127.518" width="12.6493" height="7.49248" fill="#303940"/>
<rect x="185.57" y="127.518" width="12.6493" height="7.49248" fill="#303940"/>
<rect x="166.731" y="141.52" width="12.6493" height="7.49248" fill="#303940"/>
<rect x="185.57" y="141.52" width="12.6493" height="7.49248" fill="#303940"/>
<rect x="166.731" y="155.521" width="12.6493" height="7.49248" fill="#303940"/>
<rect x="185.57" y="155.521" width="12.6493" height="7.49248" fill="#303940"/>
<rect x="166.731" y="169.523" width="12.6493" height="7.49249" fill="#303940"/>
<rect x="185.57" y="169.523" width="12.6493" height="7.49249" fill="#303940"/>
<path d="M44.0898 38.945V186.159H89.9474V25.6133L44.0898 38.945Z" fill="#434B51"/>
<rect x="51.2744" y="49.3828" width="12.6493" height="7.87252" fill="#303940"/>
<rect x="70.1143" y="49.3828" width="12.6492" height="7.87252" fill="#303940"/>
<rect x="51.2744" y="64.0967" width="12.6493" height="7.87252" fill="#303940"/>
<rect x="70.1143" y="64.0967" width="12.6492" height="7.87252" fill="#303940"/>
<rect x="51.2744" y="78.8096" width="12.6493" height="7.87252" fill="#303940"/>
<rect x="70.1143" y="78.8096" width="12.6492" height="7.87252" fill="#303940"/>
<rect x="51.2744" y="93.5215" width="12.6493" height="7.87252" fill="#303940"/>
<rect x="70.1143" y="93.5215" width="12.6492" height="7.87252" fill="#303940"/>
<rect x="51.2744" y="108.234" width="12.6493" height="7.87252" fill="#303940"/>
<rect x="70.1143" y="108.234" width="12.6492" height="7.87252" fill="#303940"/>
<rect x="51.4277" y="122.949" width="12.6493" height="7.87252" fill="#303940"/>
<rect x="70.2666" y="122.949" width="12.6492" height="7.87252" fill="#303940"/>
<rect x="51.4277" y="137.661" width="12.6493" height="7.87252" fill="#303940"/>
<rect x="70.2666" y="137.661" width="12.6492" height="7.87252" fill="#303940"/>
<rect x="51.4277" y="152.374" width="12.6493" height="7.87252" fill="#303940"/>
<rect x="70.2666" y="152.374" width="12.6492" height="7.87252" fill="#303940"/>
<rect x="51.4277" y="167.087" width="12.6493" height="7.87252" fill="#303940"/>
<rect x="70.2666" y="167.087" width="12.6492" height="7.87252" fill="#303940"/>
<path d="M74.1894 93.2823C74.7561 89.1623 68.9417 85.7716 64.5718 85.4194C62.4879 85.2518 60.3235 85.5706 58.3487 84.8823C54.0716 83.3928 52.3629 77.8656 48.1893 76.1052C45.0695 74.7899 41.4769 75.9616 38.452 77.4837C35.427 79.0057 32.4385 80.9212 29.0584 81.1375C26.1186 81.3261 22.9271 80.2358 20.355 81.6726C18.4385 82.7419 17.4344 84.9503 15.6682 86.2531C13.9394 87.5282 11.686 87.7981 9.54174 87.9149C7.39747 88.0308 5.17758 88.0528 3.22477 88.9469C1.27291 89.841 -0.342945 91.9048 0.0629344 94.0137L74.1894 93.2823Z" fill="#434B51"/>
<path d="M269.962 136.258C270.529 132.138 264.714 128.748 260.344 128.396C258.26 128.227 256.095 128.546 254.121 127.858C249.844 126.368 248.135 120.841 243.962 119.081C240.842 117.766 237.249 118.937 234.224 120.459C231.2 121.981 228.211 123.897 224.831 124.114C221.891 124.302 218.7 123.212 216.127 124.648C214.211 125.718 213.207 127.926 211.441 129.229C209.712 130.504 207.458 130.774 205.314 130.891C203.17 131.006 200.95 131.028 198.997 131.922C197.045 132.817 195.43 134.88 195.835 136.989L269.962 136.258Z" fill="#434B51"/>
<path d="M210.963 38.1175C211.61 33.9132 205.719 30.3522 201.257 29.9205C199.128 29.7147 196.91 30.0048 194.903 29.2696C190.553 27.6748 188.897 21.9963 184.657 20.1277C181.489 18.7311 177.796 19.8712 174.678 21.3779C171.56 22.8856 168.472 24.7953 165.013 24.9619C162.003 25.1055 158.757 23.9386 156.104 25.3659C154.127 26.4284 153.065 28.6694 151.237 29.9732C149.449 31.2482 147.139 31.4875 144.945 31.5718C142.751 31.656 140.48 31.6417 138.469 32.5243C136.458 33.4059 134.773 35.4908 135.152 37.6542L210.963 38.1175Z" fill="#434B51"/>
</svg>
