<svg width="42" height="42" viewBox="0 0 42 42" fill="none" xmlns="http://www.w3.org/2000/svg">
<path d="M39.5887 19.3215H39.5615C39.3032 11.7704 34.4315 5.15416 27.2975 2.66574C27.1452 1.67115 26.2916 0.935472 25.2855 0.931641H17.1122C16.106 0.935472 15.2524 1.67115 15.1002 2.66574C7.9662 5.15416 3.0945 11.7704 2.83619 19.3215H2.80895C1.68044 19.3215 0.765625 20.2363 0.765625 21.3648V22.7271C0.765625 23.8556 1.68044 24.7704 2.80895 24.7704H39.5887C40.7172 24.7704 41.632 23.8556 41.632 22.7271V21.3648C41.632 20.2363 40.7172 19.3215 39.5887 19.3215ZM15.0689 4.12671V15.916C15.0689 16.2921 15.3738 16.5971 15.75 16.5971C16.1261 16.5971 16.4311 16.2921 16.4311 15.916V2.97496C16.4311 2.59882 16.736 2.29385 17.1122 2.29385H20.5177V17.2782C20.5177 17.6543 20.8227 17.9593 21.1988 17.9593C21.575 17.9593 21.8799 17.6543 21.8799 17.2782V2.29385H25.2855C25.6616 2.29385 25.9666 2.59882 25.9666 2.97496V15.916C25.9666 16.2921 26.2715 16.5971 26.6477 16.5971C27.0238 16.5971 27.3288 16.2921 27.3288 15.916V4.12671C33.6692 6.55639 37.9472 12.5362 38.1993 19.3215H4.1984C4.4505 12.5362 8.72845 6.55639 15.0689 4.12671ZM40.2698 22.7271C40.2698 23.1032 39.9648 23.4082 39.5887 23.4082H2.80895C2.4328 23.4082 2.12784 23.1032 2.12784 22.7271V21.3648C2.12784 20.9887 2.4328 20.6837 2.80895 20.6837H39.5887C39.9648 20.6837 40.2698 20.9887 40.2698 21.3648V22.7271Z" fill="#8F9F9F"/>
<path d="M17.7932 30.9004H8.93883C7.81033 30.9004 6.89551 31.8152 6.89551 32.9438V35.6682C6.89551 36.0444 7.20049 36.3494 7.57663 36.3494C7.95277 36.3494 8.25773 36.0444 8.25773 35.6682V32.9438C8.25773 32.5677 8.56269 32.2627 8.93883 32.2627H17.7932C18.1694 32.2627 18.4743 31.9578 18.4743 31.5815C18.4743 31.2054 18.1694 30.9004 17.7932 30.9004Z" fill="#8F9F9F"/>
<path d="M40.9509 30.9003H38.1584C37.8326 29.3157 36.4387 28.1779 34.821 28.1758H7.57669C5.69684 28.178 4.17337 29.7015 4.17116 31.5813H1.44673C1.07059 31.5813 0.765625 31.8863 0.765625 32.2624V37.7114C0.765625 38.0875 1.07059 38.3924 1.44673 38.3924H4.37549C4.97904 40.4099 6.83318 41.7934 8.93891 41.7979H13.0255C16.1423 41.7891 19.0274 40.1509 20.6321 37.4791C20.8276 37.1661 21.2399 37.0709 21.5528 37.2664C21.639 37.3202 21.7117 37.3929 21.7655 37.4791C23.3703 40.1509 26.2554 41.7891 29.3721 41.7979H33.4587C35.8267 41.7952 37.8338 40.0549 38.172 37.7114H40.9509C41.3271 37.7114 41.632 37.4063 41.632 37.0303V31.5813C41.632 31.2052 41.3271 30.9003 40.9509 30.9003ZM40.2698 32.9435H38.2265V32.2624H40.2698V32.9435ZM4.17116 32.9435V33.6247H2.12784V32.9435H4.17116ZM2.12784 37.0303V34.9868H4.17116V37.0303H2.12784ZM33.4587 40.4358H29.3721C26.7343 40.428 24.2925 39.0414 22.9343 36.7802C22.3542 35.8209 21.1064 35.5136 20.1472 36.0937C19.8662 36.2636 19.6306 36.4991 19.4606 36.7802C18.1029 39.0406 15.6624 40.427 13.0255 40.4358H8.93891C7.05905 40.4335 5.53559 38.91 5.53337 37.0303V31.5813C5.53337 30.4529 6.44818 29.538 7.57669 29.538H34.821C35.9495 29.538 36.8643 30.4529 36.8643 31.5813V37.0303C36.8621 38.91 35.3386 40.4335 33.4587 40.4358ZM38.2265 36.3491V34.3058H40.2698V36.3491H38.2265Z" fill="#8F9F9F"/>
<path d="M21.8803 30.9004H20.518C20.1419 30.9004 19.8369 31.2054 19.8369 31.5815C19.8369 31.9578 20.1419 32.2627 20.518 32.2627H21.8803C22.2564 32.2627 22.5614 31.9578 22.5614 31.5815C22.5614 31.2054 22.2564 30.9004 21.8803 30.9004Z" fill="#8F9F9F"/>
</svg>
