<svg width="46" height="43" viewBox="0 0 46 43" fill="none" xmlns="http://www.w3.org/2000/svg">
<path d="M36.8709 24.0998V18.7904H41.5467C41.7332 18.7904 41.9108 18.7111 42.0353 18.5724C42.1599 18.4338 42.2196 18.2487 42.1996 18.0633L41.1042 7.904C41.0109 7.01307 40.2589 6.33703 39.3631 6.33887H30.0959C29.1293 6.34001 28.3459 7.12339 28.3447 8.09008V10.892C28.3447 11.2547 28.6388 11.5487 29.0015 11.5487C29.3641 11.5487 29.6581 11.2547 29.6581 10.892V8.09008C29.6581 7.84828 29.8542 7.65228 30.0959 7.65228H35.5576V19.7426H29.6581V12.9446C29.6581 12.582 29.3641 12.2879 29.0015 12.2879C28.6388 12.2879 28.3447 12.582 28.3447 12.9447V24.0998C28.3447 24.4625 28.6388 24.7565 29.0015 24.7565H36.2142C36.5769 24.7565 36.8709 24.4625 36.8709 24.0998ZM36.8709 7.65271H39.3631C39.587 7.65213 39.775 7.8211 39.7982 8.04377L40.8154 17.477H36.8709V7.65271ZM35.5576 23.4431H29.6581V21.056H35.5576V23.4431Z" fill="white"/>
<path d="M19.6001 18.3047H16.5454C16.1827 18.3047 15.8887 18.5987 15.8887 18.9614C15.8887 19.3241 16.1827 19.6181 16.5454 19.6181H19.6001C19.9628 19.6181 20.2568 19.3241 20.2568 18.9614C20.2568 18.5987 19.9628 18.3047 19.6001 18.3047Z" fill="white"/>
<path d="M19.6001 20.1504H16.5454C16.1827 20.1504 15.8887 20.4444 15.8887 20.8071C15.8887 21.1698 16.1827 21.4638 16.5454 21.4638H19.6001C19.9628 21.4638 20.2568 21.1698 20.2568 20.8071C20.2568 20.4444 19.9628 20.1504 19.6001 20.1504Z" fill="white"/>
<path d="M19.6001 21.9961H16.5454C16.1827 21.9961 15.8887 22.2901 15.8887 22.6528C15.8887 23.0155 16.1827 23.3095 16.5454 23.3095H19.6001C19.9628 23.3095 20.2568 23.0155 20.2568 22.6528C20.2568 22.2901 19.9628 21.9961 19.6001 21.9961Z" fill="white"/>
<path d="M45.4248 36.0884C45.371 35.6541 45.2583 35.2291 45.0898 34.8253C45.3572 34.6442 45.4394 34.2873 45.278 34.0076C45.1166 33.7278 44.7664 33.6203 44.4758 33.7613C44.2108 33.4125 43.9001 33.1009 43.5521 32.8347C43.6903 32.5454 43.5835 32.1984 43.3064 32.037C43.0294 31.8756 42.6748 31.9538 42.4913 32.2168C42.0862 32.0461 41.6595 31.9317 41.2233 31.8769C41.1972 31.5656 40.9421 31.3231 40.6299 31.3128C40.3176 31.3026 40.0472 31.5277 40.0006 31.8366H38.9605C38.9152 31.5353 38.6563 31.3124 38.3516 31.3124C38.0469 31.3124 37.788 31.5353 37.7428 31.8366H36.703C36.6577 31.5353 36.3989 31.3125 36.0942 31.3125C35.7896 31.3125 35.5307 31.5353 35.4855 31.8366L34.4467 31.8366C34.4072 31.5757 34.2059 31.3689 33.9461 31.3224C33.6864 31.2759 33.4259 31.4001 33.2984 31.6311V30.4587H35.5845C35.925 30.4587 36.201 30.1827 36.201 29.8422V28.2486H41.6529C43.6625 28.2463 45.291 26.6178 45.2933 24.6082V18.7504C45.293 18.4678 45.269 18.1858 45.2214 17.9073L43.7836 6.59249C43.7824 6.58304 43.7809 6.57369 43.7793 6.56444C43.5155 5.03478 42.1874 3.91804 40.6352 3.92059H29.3312C28.2038 3.92362 27.2881 4.83211 27.2762 5.95945L27.2112 14.25L17.3249 7.68831C16.7335 7.27261 15.9469 7.26501 15.3476 7.66919L5.13309 0.40687C4.35876 -0.167334 3.2902 -0.129996 2.55844 0.497553C1.82669 1.12511 1.62641 2.17542 2.07588 3.02822V14.6887H1.66385C1.09664 14.6894 0.636985 15.149 0.636364 15.7162V18.3343C0.636985 18.9015 1.09665 19.3612 1.66385 19.3618H2.20843V20.5824C2.20961 20.6261 2.18193 20.6653 2.14041 20.6788C0.776462 21.0201 -0.129231 22.312 0.0150716 23.7106C0.15937 25.1092 1.30978 26.189 2.71468 26.2446C2.75249 26.246 2.78999 26.2467 2.8277 26.2467C3.86493 26.2499 4.81943 25.681 5.31002 24.7671C5.47221 24.4678 5.361 24.0936 5.06163 23.9314C4.76226 23.7692 4.38809 23.8804 4.22591 24.1798C3.93954 24.7164 3.36994 25.0403 2.76235 25.0121C1.97 24.9814 1.32095 24.3724 1.23979 23.5836C1.15864 22.7949 1.67012 22.0665 2.43962 21.8751C3.03092 21.7256 3.44421 21.1924 3.44142 20.5824V19.3618H3.98702C4.55423 19.3612 5.01389 18.9015 5.01452 18.3343V15.7162C5.01389 15.149 4.55423 14.6894 3.98702 14.6887L3.30888 14.6887V4.10555L13.1872 24.6888V27.6321C13.1872 27.9726 13.4632 28.2486 13.8037 28.2486H19.9954V29.8422C19.9954 30.1827 20.2714 30.4587 20.6119 30.4587H23.0799V31.614C22.9471 31.3902 22.6879 31.2741 22.4325 31.324C22.177 31.374 21.9807 31.5792 21.942 31.8366H20.9023C20.857 31.5353 20.5981 31.3124 20.2934 31.3124C19.9887 31.3124 19.7298 31.5353 19.6846 31.8366H18.4927C18.446 31.5281 18.1761 31.3031 17.8642 31.313C17.5523 31.3228 17.2971 31.5643 17.27 31.8751C16.8332 31.9287 16.4059 32.0422 16.0001 32.2122C15.8152 31.9534 15.4638 31.8777 15.1888 32.0374C14.9138 32.1972 14.8054 32.5399 14.9386 32.8287C14.5882 33.0949 14.2756 33.4073 14.0093 33.7575C13.7208 33.6254 13.3791 33.7339 13.2197 34.0083C13.0602 34.2827 13.1352 34.6333 13.3928 34.8186C13.2224 35.2246 13.1087 35.6521 13.0549 36.0892C12.7383 36.1197 12.4968 36.386 12.4975 36.7041C12.4981 37.0221 12.7406 37.2875 13.0573 37.3167C13.1129 37.7525 13.2278 38.1787 13.3988 38.5834C13.1329 38.7659 13.0531 39.1227 13.2157 39.4012C13.3784 39.6796 13.7284 39.7852 14.0179 39.6433C14.2843 39.9908 14.5961 40.301 14.9449 40.5657C14.8009 40.8568 14.908 41.2098 15.1895 41.3719C15.4711 41.534 15.8301 41.4492 16.0095 41.1784C16.4125 41.3461 16.8364 41.4582 17.2696 41.5118C17.2878 41.8303 17.5462 42.0822 17.865 42.0923C18.1839 42.1024 18.4577 41.8673 18.496 41.5506H19.6821C19.7209 41.8589 19.9831 42.0901 20.2938 42.0901C20.6045 42.0901 20.8666 41.8589 20.9054 41.5506H21.9395C21.9783 41.8589 22.2405 42.0901 22.5512 42.0901C22.8619 42.0901 23.124 41.8589 23.1628 41.5506H24.1969C24.2357 41.8589 24.4979 42.0901 24.8086 42.0901C25.1193 42.0901 25.3814 41.8589 25.4202 41.5506H26.4543C26.4931 41.8589 26.7553 42.0901 27.066 42.0901C27.3767 42.0901 27.6388 41.8589 27.6777 41.5506H28.7117C28.7507 41.8587 29.0128 42.0897 29.3233 42.0897C29.6339 42.0897 29.896 41.8587 29.935 41.5506H30.9691C31.0079 41.8589 31.2701 42.0901 31.5808 42.0901C31.8915 42.0901 32.1537 41.8589 32.1925 41.5506H33.2265C33.2651 41.8591 33.5274 42.0905 33.8382 42.0905C34.1491 42.0905 34.4113 41.8591 34.45 41.5506H35.4829C35.5215 41.8591 35.7838 42.0905 36.0946 42.0905C36.4055 42.0905 36.6677 41.8591 36.7064 41.5506H37.7403C37.7791 41.8589 38.0413 42.0901 38.352 42.0901C38.6627 42.0901 38.9248 41.8589 38.9637 41.5506H39.9977C40.036 41.8677 40.3102 42.1029 40.6294 42.0924C40.9486 42.0819 41.2068 41.8292 41.2241 41.5103C41.6568 41.456 42.0801 41.3428 42.4822 41.1739C42.6609 41.4493 43.0243 41.5358 43.308 41.3707C43.5917 41.2055 43.6957 40.8467 43.5445 40.5554C43.8906 40.2918 44.1997 39.9831 44.4638 39.6374C44.7546 39.7863 45.1109 39.6821 45.2757 39.4C45.4405 39.118 45.3562 38.7564 45.0838 38.5762C45.2536 38.174 45.3677 37.7505 45.4229 37.3174C45.7469 37.2971 45.9994 37.0286 46 36.704C46.0006 36.3793 45.7488 36.1099 45.4248 36.0884ZM15.9029 8.82071C16.0673 8.58952 16.388 8.53536 16.6192 8.69978C16.6247 8.70358 16.6301 8.70738 16.6356 8.71097L26.5263 15.2757H23.521L16.0409 9.55013C16.0351 9.54572 16.0293 9.5414 16.0234 9.53719C15.7928 9.37229 15.7389 9.05199 15.9029 8.82071ZM3.78152 15.9217V18.1288H1.86935V15.9217H3.78152ZM3.90585 2.90543C3.86881 2.90548 3.83181 2.90312 3.79509 2.89834C3.44911 2.85213 3.16838 2.5956 3.09125 2.25519C3.01411 1.91477 3.15684 1.5623 3.4491 1.37146C3.74136 1.18063 4.12148 1.1917 4.40213 1.39922L4.40583 1.4021C4.66325 1.59274 4.78768 1.91471 4.72538 2.22892C4.64982 2.6218 4.30592 2.90569 3.90585 2.90543ZM13.1872 21.8391L4.62941 4.00721C4.90085 3.90569 5.14806 3.74851 5.35513 3.54576L13.1872 16.0689V21.8391ZM6.32046 2.76384L14.6342 8.67481C14.451 9.37262 14.7153 10.1113 15.2995 10.5346L21.4925 15.2753H14.1452L6.32046 2.76384ZM21.2284 29.2257V28.2486H31.1334C31.4739 28.2486 31.7499 27.9726 31.7499 27.6321C31.7499 27.2916 31.4739 27.0156 31.1334 27.0156H14.4202V16.5084H27.8146C28.1532 16.5084 28.4284 16.2355 28.4311 15.8969L28.5092 5.9691C28.514 5.51817 28.8802 5.1548 29.3312 5.15359H40.6347C41.5822 5.15206 42.3944 5.83031 42.5619 6.76295L43.9995 18.0757C44.0007 18.0849 44.0021 18.0942 44.0036 18.1034C44.041 18.3169 44.0599 18.5333 44.0603 18.7501L44.0603 24.6079C44.0588 25.9368 42.9819 27.0137 41.6529 27.0153L33.2413 27.0153C32.9008 27.0153 32.6248 27.2913 32.6248 27.6318C32.6248 27.9723 32.9008 28.2483 33.2413 28.2483H34.968V29.2254L21.2284 29.2257ZM32.0653 30.4587V31.5494C31.914 31.3554 31.6616 31.2703 31.4237 31.3328C31.1857 31.3954 31.0079 31.5938 30.9716 31.8371H29.9318C29.8865 31.5358 29.6276 31.3129 29.3229 31.3129C29.0182 31.3129 28.7594 31.5358 28.7141 31.8371H27.6749C27.6296 31.5358 27.3707 31.3129 27.066 31.3129C26.7613 31.3129 26.5025 31.5358 26.4572 31.8371H25.4174C25.3804 31.5908 25.1986 31.391 24.9568 31.3311C24.7151 31.2712 24.461 31.3629 24.3133 31.5635V30.4587H32.0653ZM43.1659 39.252C42.4899 39.9348 41.5687 40.3186 40.6079 40.3175H17.8726C15.8711 40.3175 14.2486 38.695 14.2486 36.6935C14.2486 34.6921 15.8711 33.0696 17.8726 33.0696H40.6079C42.0736 33.0678 43.3956 33.9504 43.9559 35.3048C44.5163 36.6591 44.2043 38.2177 43.1659 39.252Z" fill="white"/>
<path d="M20.7737 35.744C20.7543 35.6548 20.7309 35.5672 20.7035 35.4814C20.8654 35.2704 20.8841 34.9826 20.7509 34.7524C20.6176 34.5222 20.3587 34.3952 20.0951 34.4306C20.0346 34.364 19.9709 34.3003 19.9041 34.2396C19.9395 33.976 19.8124 33.7172 19.5823 33.584C19.3521 33.4508 19.0644 33.4695 18.8534 33.6314C18.7674 33.6039 18.6798 33.5805 18.5907 33.5611C18.4892 33.3155 18.2496 33.1553 17.9838 33.1553C17.718 33.1553 17.4785 33.3155 17.3769 33.5611C17.2878 33.5805 17.2002 33.6039 17.1143 33.6315C16.9033 33.4696 16.6156 33.4509 16.3855 33.5841C16.1553 33.7173 16.0282 33.976 16.0635 34.2396C15.9969 34.3003 15.9333 34.3639 15.8725 34.4306C15.609 34.3953 15.3501 34.5224 15.2169 34.7525C15.0837 34.9826 15.1024 35.2704 15.2643 35.4814C15.2369 35.5674 15.2134 35.6549 15.1939 35.744C14.9483 35.8456 14.7881 36.0851 14.7881 36.3509C14.7881 36.6167 14.9483 36.8563 15.1939 36.9578C15.2134 37.0471 15.2369 37.1346 15.2643 37.2205C15.1119 37.4189 15.0855 37.6867 15.1962 37.9111C15.3069 38.1355 15.5355 38.2775 15.7857 38.2773C15.8148 38.2772 15.8438 38.2752 15.8725 38.2712C15.9332 38.3379 15.9968 38.4016 16.0635 38.4623C16.0282 38.7259 16.1553 38.9846 16.3855 39.1178C16.6156 39.251 16.9033 39.2323 17.1143 39.0704C17.2002 39.098 17.2881 39.1214 17.3769 39.1408C17.4785 39.3864 17.718 39.5467 17.9838 39.5467C18.2496 39.5467 18.4892 39.3864 18.5907 39.1408C18.6799 39.1214 18.7675 39.0979 18.8534 39.0704C19.0643 39.2323 19.352 39.251 19.5821 39.1179C19.8123 38.9847 19.9394 38.7259 19.9041 38.4624C19.9708 38.4017 20.0345 38.338 20.0952 38.2712C20.124 38.2752 20.153 38.2772 20.1819 38.2773C20.4322 38.2775 20.6608 38.1356 20.7716 37.9112C20.8823 37.6868 20.8559 37.4189 20.7035 37.2205C20.7309 37.1346 20.7543 37.0471 20.7737 36.9578C21.0194 36.8563 21.1796 36.6167 21.1796 36.3509C21.1796 36.0851 21.0194 35.8456 20.7737 35.744ZM17.9837 37.8931C17.132 37.8931 16.4416 37.2026 16.4416 36.3509C16.4416 35.4992 17.132 34.8088 17.9837 34.8088C18.8354 34.8088 19.5259 35.4992 19.5259 36.3509C19.5249 37.2022 18.8351 37.8921 17.9837 37.8931Z" fill="white"/>
<path d="M42.4574 34.4306C42.3968 34.3639 42.3331 34.3002 42.2663 34.2395C42.3017 33.9759 42.1746 33.7171 41.9445 33.5839C41.7143 33.4507 41.4265 33.4694 41.2156 33.6313C41.1296 33.6038 41.0421 33.5803 40.9529 33.561C40.8514 33.3154 40.6118 33.1553 40.3461 33.1553C40.0803 33.1553 39.8408 33.3154 39.7392 33.561C39.6499 33.5803 39.5624 33.6038 39.4765 33.6314C39.2656 33.4695 38.9779 33.4508 38.7478 33.584C38.5176 33.7171 38.3905 33.976 38.4258 34.2395C38.3592 34.3001 38.2955 34.3638 38.2347 34.4306C37.9712 34.3952 37.7123 34.5223 37.5791 34.7525C37.4459 34.9826 37.4646 35.2704 37.6265 35.4813C37.599 35.5673 37.5755 35.6549 37.5561 35.744C37.3105 35.8456 37.1504 36.0851 37.1504 36.3508C37.1504 36.6166 37.3105 36.8561 37.5561 36.9577C37.5756 37.047 37.5991 37.1346 37.6265 37.2204C37.4741 37.4188 37.4477 37.6866 37.5584 37.911C37.6691 38.1354 37.8977 38.2773 38.1479 38.2771C38.1769 38.2771 38.206 38.275 38.2347 38.2711C38.2953 38.3377 38.3591 38.4014 38.4259 38.4622C38.3906 38.7257 38.5178 38.9845 38.7479 39.1177C38.978 39.2509 39.2657 39.2322 39.4766 39.0703C39.5627 39.0979 39.6502 39.1213 39.7393 39.1407C39.8409 39.3862 40.0804 39.5464 40.3462 39.5464C40.6119 39.5464 40.8515 39.3862 40.953 39.1407C41.0423 39.1213 41.1299 39.0978 41.2157 39.0703C41.4266 39.2322 41.7144 39.2509 41.9445 39.1177C42.1746 38.9846 42.3017 38.7257 42.2664 38.4622C42.3331 38.4016 42.3968 38.3379 42.4574 38.2711C42.4862 38.275 42.5152 38.2771 42.5442 38.2771C42.7945 38.2774 43.0231 38.1354 43.1339 37.911C43.2446 37.6866 43.2182 37.4188 43.0657 37.2204C43.0933 37.1345 43.1167 37.0469 43.1361 36.9577C43.3817 36.8561 43.5419 36.6166 43.5419 36.3508C43.5419 36.0851 43.3817 35.8456 43.1361 35.744C43.1166 35.6547 43.0932 35.5672 43.0657 35.4813C43.2277 35.2704 43.2464 34.9826 43.1132 34.7525C42.9799 34.5223 42.721 34.3952 42.4574 34.4306ZM40.3459 37.8932C39.4942 37.8932 38.8037 37.2027 38.8037 36.351C38.8037 35.4993 39.4942 34.8088 40.3459 34.8088C41.1976 34.8088 41.8881 35.4993 41.8881 36.351C41.8871 37.2023 41.1972 37.8922 40.3459 37.8932Z" fill="white"/>
<path d="M28.2856 35.744C28.2661 35.6548 28.2426 35.5672 28.2152 35.4814C28.3771 35.2704 28.3958 34.9826 28.2626 34.7524C28.1293 34.5222 27.8705 34.3952 27.6069 34.4306C27.5463 34.364 27.4826 34.3003 27.4159 34.2396C27.4512 33.976 27.3241 33.7172 27.094 33.584C26.8638 33.4508 26.5761 33.4695 26.3652 33.6314C26.2791 33.6039 26.1916 33.5805 26.1025 33.5611C26.0009 33.3155 25.7613 33.1553 25.4956 33.1553C25.2298 33.1553 24.9902 33.3155 24.8887 33.5611C24.7995 33.5805 24.7119 33.6039 24.626 33.6315C24.4151 33.4696 24.1273 33.4509 23.8972 33.5841C23.6671 33.7173 23.5399 33.976 23.5753 34.2396C23.5086 34.3003 23.445 34.3639 23.3842 34.4306C23.1207 34.3953 22.8618 34.5224 22.7286 34.7525C22.5954 34.9826 22.6141 35.2704 22.776 35.4814C22.7486 35.5674 22.7252 35.6549 22.7057 35.744C22.46 35.8456 22.2998 36.0851 22.2998 36.3509C22.2998 36.6167 22.46 36.8563 22.7057 36.9578C22.7252 37.0471 22.7486 37.1346 22.776 37.2205C22.6236 37.4189 22.5972 37.6867 22.7079 37.9111C22.8186 38.1355 23.0473 38.2775 23.2975 38.2773C23.3265 38.2772 23.3554 38.2752 23.3842 38.2712C23.4449 38.3379 23.5086 38.4016 23.5753 38.4623C23.5399 38.7259 23.6671 38.9846 23.8972 39.1178C24.1273 39.251 24.4151 39.2323 24.626 39.0704C24.7119 39.098 24.7998 39.1214 24.8887 39.1408C24.9902 39.3864 25.2298 39.5467 25.4956 39.5467C25.7613 39.5467 26.0009 39.3864 26.1025 39.1408C26.1918 39.1214 26.2793 39.0979 26.3652 39.0704C26.576 39.2323 26.8638 39.251 27.0939 39.1179C27.324 38.9847 27.4511 38.7259 27.4159 38.4624C27.4825 38.4017 27.5462 38.338 27.607 38.2712C27.6357 38.2752 27.6647 38.2772 27.6937 38.2773C27.9439 38.2775 28.1725 38.1356 28.2833 37.9112C28.394 37.6868 28.3676 37.4189 28.2152 37.2205C28.2426 37.1346 28.2661 37.0471 28.2856 36.9578C28.5312 36.8563 28.6914 36.6167 28.6914 36.3509C28.6914 36.0851 28.5312 35.8456 28.2856 35.744ZM25.4955 37.8931C24.6438 37.8931 23.9533 37.2026 23.9533 36.3509C23.9533 35.4992 24.6438 34.8088 25.4955 34.8088C26.3472 34.8088 27.0376 35.4992 27.0376 36.3509C27.0367 37.2022 26.3468 37.8921 25.4955 37.8931Z" fill="white"/>
<path d="M35.7972 35.7441C35.7778 35.6549 35.7543 35.5673 35.7269 35.4814C35.8888 35.2705 35.9075 34.9828 35.7743 34.7526C35.6411 34.5224 35.3822 34.3954 35.1187 34.4307C35.058 34.364 34.9943 34.3003 34.9276 34.2395C34.9628 33.976 34.8357 33.7171 34.6056 33.584C34.3755 33.4508 34.0877 33.4695 33.8768 33.6314C33.791 33.6039 33.7034 33.5805 33.6141 33.5611C33.5126 33.3155 33.273 33.1553 33.0072 33.1553C32.7415 33.1553 32.5019 33.3155 32.4003 33.5611C32.3111 33.5805 32.2235 33.6039 32.1376 33.6315C31.9267 33.4696 31.639 33.4509 31.4089 33.5841C31.1787 33.7173 31.0516 33.976 31.0869 34.2396C31.0202 34.3003 30.9564 34.3639 30.8956 34.4307C30.6321 34.3954 30.3733 34.5226 30.2401 34.7527C30.1069 34.9828 30.1256 35.2705 30.2875 35.4814C30.26 35.5675 30.2365 35.655 30.2171 35.7441C29.9716 35.8457 29.8115 36.0852 29.8115 36.3509C29.8115 36.6166 29.9716 36.8561 30.2171 36.9577C30.2365 37.047 30.26 37.1346 30.2875 37.2204C30.1351 37.4188 30.1086 37.6866 30.2194 37.911C30.3301 38.1354 30.5587 38.2774 30.8089 38.2771C30.838 38.2771 30.8669 38.2751 30.8957 38.2711C30.9564 38.3377 31.0201 38.4014 31.0869 38.4622C31.0516 38.7257 31.1788 38.9846 31.4089 39.1177C31.639 39.2509 31.9267 39.2322 32.1376 39.0703C32.2237 39.0979 32.3112 39.1214 32.4003 39.1407C32.5019 39.3863 32.7415 39.5465 33.0072 39.5465C33.273 39.5465 33.5126 39.3863 33.6141 39.1407C33.7034 39.1213 33.791 39.0978 33.8768 39.0703C34.0877 39.2322 34.3754 39.2509 34.6055 39.1178C34.8356 38.9846 34.9628 38.7259 34.9276 38.4623C34.9942 38.4016 35.0578 38.3379 35.1185 38.2711C35.1473 38.2751 35.1763 38.2771 35.2053 38.2771C35.4556 38.2774 35.6842 38.1355 35.795 37.9111C35.9057 37.6867 35.8793 37.4188 35.7269 37.2204C35.7543 37.1345 35.7778 37.047 35.7972 36.9577C36.0428 36.8561 36.203 36.6166 36.203 36.3509C36.203 36.0851 36.0428 35.8457 35.7972 35.7441ZM33.0071 37.8932C32.1554 37.8932 31.465 37.2027 31.465 36.351C31.465 35.4993 32.1554 34.8089 33.0071 34.8089C33.8588 34.8089 34.5493 35.4993 34.5493 36.351C34.5483 37.2023 33.8585 37.8922 33.0071 37.8932Z" fill="white"/>
</svg>
