<svg width="34" height="45" viewBox="0 0 34 45" fill="none" xmlns="http://www.w3.org/2000/svg">
<path d="M31.861 37.7512H28.1199V43.5052C29.2208 43.5052 30.2789 43.5416 31.3303 43.475C31.5453 43.4616 31.8462 43.091 31.912 42.8347C32.0168 42.4288 31.8864 41.9615 31.9937 41.5571C32.0556 41.3248 32.3717 41.0506 32.6093 41.0111C32.7839 40.9823 33.1829 41.2934 33.1941 41.4711C33.2386 42.1794 33.2694 42.9168 33.1177 43.6019C32.9466 44.3741 32.3147 44.8016 31.5194 44.8034C25.169 44.8183 18.8186 44.8212 12.4686 44.7859C12.1921 44.7843 11.918 44.375 11.6429 44.1555C11.9263 43.9425 12.1919 43.5833 12.4968 43.5455C13.2283 43.4554 13.9783 43.5164 14.7862 43.5164V28.9405C13.6823 29.7103 12.9963 28.9325 12.2614 28.3001C11.9132 28.0004 11.4971 27.76 11.2105 27.4116C10.2895 26.2923 9.28639 26.2797 8.05485 26.9123C6.98843 27.4599 5.81705 27.7998 4.70393 28.2602C2.71003 29.0849 1.6088 30.589 1.48211 32.7401C1.41299 33.9101 1.46987 35.0875 1.46987 36.3214H5.32737C5.32737 35.3836 5.32564 34.4203 5.32823 33.4567C5.32926 33.0548 5.26187 32.6294 5.37425 32.2597C5.44389 32.0303 5.7781 31.7714 6.02044 31.741C6.19522 31.7191 6.48479 32.017 6.59424 32.2364C6.69955 32.4476 6.64991 32.7414 6.65008 32.999C6.6525 36.1591 6.65181 39.3192 6.65181 42.4793V43.5142C7.4564 43.5142 8.16551 43.5133 8.87461 43.5145C9.35775 43.5152 9.86622 43.5457 9.85381 44.1907C9.84295 44.7703 9.38412 44.8181 8.91908 44.8171C6.62027 44.8112 4.32128 44.8274 2.02264 44.8084C0.85729 44.7988 0.154047 44.0864 0.14922 42.9085C0.135776 39.5474 0.0764829 36.1842 0.169215 32.8255C0.244365 30.1122 1.61345 28.1357 4.13944 27.0891C6.68283 26.0355 9.26725 25.0809 11.8329 24.0803C12.6711 23.7534 12.957 22.4808 12.2826 21.8853C11.0548 20.8016 10.2409 19.5036 9.91327 17.8882C9.8738 17.6931 9.56544 17.4721 9.33999 17.4071C7.04014 16.744 6.22797 14.4604 7.58429 12.5094C7.75976 12.2572 7.78476 11.846 7.75821 11.5181C7.65393 10.2375 7.37936 8.95871 7.39952 7.68287C7.42124 6.31448 8.11121 5.2865 9.56527 4.93798C9.75401 4.89282 9.98308 4.71977 10.0591 4.54672C11.0243 2.34598 12.8927 1.37695 15.0844 0.920188C17.9646 0.320018 20.6931 0.767818 23.1549 2.42251C23.8111 2.86359 24.6454 3.2845 24.4434 4.3597C24.4237 4.46364 24.6233 4.62359 24.7415 4.73615C25.0949 5.07225 25.4793 5.37785 25.814 5.73103C27.0755 7.06254 27.116 7.77457 26.1415 9.30602C25.8373 9.78381 25.6197 10.3249 25.4196 10.8583C25.179 11.5006 25.2176 12.0295 25.7566 12.6347C27.1814 14.2341 26.3037 16.7751 24.1731 17.3421C23.6837 17.4723 23.4821 17.6284 23.3754 18.1419C23.082 19.5563 22.3502 20.7417 21.2698 21.7153C20.3818 22.516 20.6167 23.7258 21.7207 24.1539C24.2076 25.1183 26.6963 26.0782 29.1797 27.0515C31.6345 28.0133 33.2058 30.2685 33.2441 32.9121C33.2689 34.6355 33.2501 36.3595 33.2508 38.0832C33.2511 38.5744 33.3161 39.1656 32.6186 39.1818C31.9215 39.198 31.9567 38.6083 31.9339 38.1145C31.9288 38.0047 31.8912 37.8965 31.861 37.7512ZM18.5852 43.449H26.7427V42.3702C26.7429 39.153 26.7422 35.9359 26.7448 32.7187C26.7449 32.2445 26.7566 31.7205 27.3999 31.7155C28.0385 31.7107 28.0687 32.2166 28.0676 32.7023C28.0651 33.9004 28.0668 35.0985 28.0668 36.3147H31.9096C31.9096 35.0142 31.9922 33.7742 31.8912 32.5493C31.724 30.5183 30.6515 29.0639 28.7545 28.2827C27.2698 27.6714 25.7531 27.137 24.267 26.5286C23.7816 26.3299 23.4285 26.3533 23.0301 26.7142C22.3497 27.3308 21.5988 27.8698 20.9199 28.4878C20.2368 29.1097 19.5491 29.5539 18.5852 28.9372V43.449ZM22.2128 11.4159C21.2046 11.1379 20.5797 10.5512 20.4542 9.44719C20.4269 9.20622 19.9698 8.89924 19.6613 8.82392C17.6765 8.33992 15.6795 8.36233 13.6841 8.80531C13.1796 8.91717 12.891 9.15072 12.8324 9.71435C12.7557 10.4533 12.3284 10.96 11.6178 11.2524C11.4097 11.338 11.1424 11.6195 11.1408 11.8132C11.1246 13.7085 11.0402 15.6147 11.2082 17.4969C11.4456 20.1501 13.9966 22.1749 16.7789 22.1137C19.5856 22.052 22.0334 19.9505 22.1902 17.304C22.3057 15.3594 22.2128 13.4026 22.2128 11.4159ZM23.6794 11.4583C24.3006 10.2332 24.9055 9.11659 25.4208 7.96021C25.5255 7.72545 25.3936 7.23714 25.1962 7.0434C24.5271 6.38653 23.8339 5.72448 23.0482 5.22342C22.0756 4.60274 21.9942 4.57326 22.4339 3.47375C20.3397 2.1057 18.0402 1.70858 15.6101 2.15069C13.5848 2.5192 11.8308 3.31259 11.0783 5.49248C10.9712 5.80187 10.4421 6.09075 10.0675 6.15659C9.25639 6.29914 8.86772 6.75056 8.71776 7.5012C8.44387 8.87046 8.77085 10.1656 9.19228 11.6438C9.4684 11.3887 9.64663 11.221 9.8283 11.0572C10.2066 10.7163 10.5969 10.3879 10.9623 10.0341C11.1796 9.82397 11.4763 9.60162 11.5356 9.33929C11.7569 8.35647 12.3238 7.78853 13.2969 7.56842C15.5456 7.05995 17.7877 7.05702 20.0384 7.56222C21.0121 7.78095 21.6045 8.32372 21.8115 9.3136C21.8629 9.55922 22.0441 9.94842 22.2075 9.97117C23.0801 10.0932 23.4854 10.6422 23.6794 11.4583ZM1.45763 37.7541C1.45763 39.5176 1.43488 41.1812 1.48469 42.8428C1.49142 43.0691 1.85028 43.4618 2.06539 43.4754C3.11611 43.5416 4.17322 43.5054 5.27721 43.5054V37.7541H1.45763ZM16.2156 43.4418H17.1519V27.6431C16.8052 27.6593 16.5301 27.6722 16.2156 27.687V43.4418ZM13.9897 22.9436C13.7834 23.6734 13.9769 24.1596 14.5623 24.6078C15.14 25.0502 15.5556 25.7066 16.1387 26.1392C16.389 26.325 17.0003 26.3402 17.2427 26.1589C17.8467 25.7068 18.2853 25.0366 18.8807 24.569C19.4645 24.1105 19.6027 23.6222 19.3917 22.9581C17.0396 23.5981 16.2887 23.5972 13.9897 22.9436ZM11.255 25.7724C12.1502 26.5164 12.9817 27.2074 13.8587 27.9363C14.201 27.4252 14.51 26.9636 14.8096 26.5165C13.0094 24.863 13.0094 24.863 11.255 25.7724ZM22.1357 25.7786C19.9843 24.8736 20.7079 24.6791 18.5957 26.5369C18.9024 26.9845 19.2133 27.438 19.5484 27.9266C20.4343 27.1908 21.2453 26.5177 22.1357 25.7786ZM9.80244 16.0787V14.454V12.7564C8.69983 12.9998 8.21308 13.5725 8.23928 14.4831C8.26392 15.345 8.76757 15.8834 9.80244 16.0787ZM23.611 12.8181V16.0568C24.5625 15.9062 25.1125 15.3306 25.139 14.4918C25.1652 13.6635 24.6105 13.0458 23.611 12.8181Z" fill="#8F9F9F"/>
</svg>
