<svg width="37" height="45" viewBox="0 0 37 45" fill="none" xmlns="http://www.w3.org/2000/svg">
<path d="M35.7862 40.0622C35.7862 40.0113 35.7862 40.0113 35.7862 40.0622C35.7862 39.9604 35.7353 39.8586 35.7353 39.8077C35.4808 38.7387 35.0735 37.7206 34.6663 36.7534C34.6663 36.7025 34.6154 36.6516 34.5645 36.5498C32.4265 32.0192 28.4559 28.5577 23.6199 27.0305C23.569 26.9796 23.5181 26.9796 23.4672 26.9796H23.4163C23.009 26.8778 22.6018 26.7251 22.1946 26.6742C25.9106 24.5362 28.5577 19.802 28.6595 15.5769C30.5939 15.2206 31.9683 14.7115 31.9683 13.8971C31.9683 13.2862 31.3575 12.7771 30.3394 12.4208C29.474 6.61765 26.0124 2.59615 20.8201 1.52715V1.22172C20.8201 0.509049 20.1075 0 19.1403 0H17.0023C16.0351 0 15.3224 0.509049 15.3224 1.22172V1.52715C10.3846 2.69796 6.71946 6.87217 5.85407 12.3699C4.93778 12.6244 4.32692 12.9808 4.32692 13.8462C4.32692 14.6606 5.70136 15.1697 7.63575 15.526C7.73756 19.802 10.2828 24.5362 13.8971 26.6233C5.85407 28.5068 0 35.6335 0 44.2364C0 44.6946 0.356335 45 0.763575 45H35.4299C35.888 45 36.1934 44.6437 36.1934 44.2364C36.2952 42.8111 36.1425 41.4366 35.7862 40.0622ZM23.6708 28.7104C27.4887 30.0339 30.6448 32.7319 32.6301 36.1934H21.6855L21.1765 34.4118C21.0238 33.9536 21.1256 33.4955 21.3292 33.0373L23.6708 28.7104ZM5.95588 13.7952C6.10859 13.7443 6.31222 13.6934 6.66855 13.5916C7.02489 13.5407 7.27941 13.1844 7.1776 12.8281C7.68665 9.11199 9.67194 6.00679 12.4208 4.22511C12.2681 5.54864 12.1663 7.63575 12.6244 9.41742C12.6753 9.72285 12.9808 9.92647 13.2862 9.92647C13.3371 9.92647 13.388 9.92647 13.4389 9.92647C13.7953 9.82466 13.9989 9.46833 13.948 9.11199C13.4389 6.97398 13.7953 4.27602 13.8971 3.46154C14.3552 3.25792 14.8643 3.0543 15.3733 2.95249C15.4242 3.25792 15.7296 3.46154 16.0351 3.46154C16.3914 3.46154 16.6968 3.15611 16.6968 2.79977V1.42534C16.7477 1.37443 16.9004 1.37443 17.0023 1.37443H19.1403C19.293 1.37443 19.3948 1.42534 19.4457 1.42534V2.74887C19.4457 3.1052 19.7511 3.41063 20.1075 3.41063C20.4129 3.41063 20.7183 3.20701 20.7692 2.85068C21.3801 3.00339 21.94 3.15611 22.4491 3.41063C22.5509 4.22511 22.9072 6.97398 22.3982 9.06109C22.2964 9.41742 22.5509 9.77376 22.9072 9.87556C22.9581 9.87556 23.009 9.87556 23.0599 9.87556C23.3654 9.87556 23.6199 9.67194 23.7217 9.36652C24.129 7.53394 24.0271 5.44683 23.9253 4.1233C26.7251 5.85407 28.5068 8.90837 29.0158 12.879C29.0158 12.9299 29.0158 12.9299 29.0158 12.9299C29.0158 12.9808 29.0158 13.0317 29.0667 13.0317C29.0667 13.0826 29.1176 13.1335 29.1176 13.1335C29.1685 13.1844 29.2194 13.2353 29.2704 13.2862C29.3213 13.3371 29.3722 13.3371 29.4231 13.388C29.474 13.4389 29.5249 13.4389 29.5758 13.4389H29.6267C29.9321 13.4898 30.1357 13.5916 30.2885 13.6425C28.8631 14.1516 24.5362 14.6606 18.1731 14.6606C11.6572 14.8642 7.22851 14.3043 5.95588 13.7952ZM9.31561 15.7805C12.319 16.1369 16.0351 16.1878 18.224 16.1878C20.4129 16.1878 24.078 16.1369 27.0814 15.7805C26.776 20.4129 22.8563 26.0124 18.3258 26.2161C18.224 26.2161 18.1222 26.267 18.0204 26.267C17.9186 26.2161 17.8676 26.2161 17.7658 26.2161C13.2353 26.0633 9.57014 20.5147 9.31561 15.7805ZM13.0826 28.5577L15.3733 32.8846C15.7296 33.5464 15.8314 34.3099 15.6278 35.0226L15.2715 36.1934H3.76697C5.75226 32.5792 9.06109 29.8303 13.0826 28.5577ZM13.1844 43.5238H1.67986C1.73077 42.5056 1.88348 41.5385 2.08711 40.6222H14.0498L13.1844 43.5238ZM2.49434 38.9932C2.64706 38.586 2.79978 38.1787 2.95249 37.7715H14.8133L14.457 38.9932H2.49434ZM14.8643 43.5238L16.6459 37.3133C16.6459 37.2624 16.6968 37.2115 16.6968 37.1606L17.2059 35.4808C17.5113 34.3609 17.4095 33.19 16.8495 32.1719L14.7115 28.2013C15.7296 27.9977 16.7986 27.845 17.8676 27.845C17.9695 27.845 18.0713 27.7941 18.1731 27.7941C18.2749 27.845 18.3767 27.845 18.4785 27.845C19.7511 27.845 21.0238 28.0486 22.1946 28.3032L20.0056 32.3756C19.5984 33.1391 19.4966 34.0554 19.7511 34.9208L20.3111 37.1097V37.1606C20.3111 37.2115 20.362 37.2624 20.362 37.3133L21.1765 40.2149C21.1765 40.2658 21.2274 40.3676 21.2274 40.4185L22.1437 43.5238H14.8643ZM22.1437 37.7715H33.3937C33.5973 38.2805 33.8009 38.7387 33.9536 39.2986H22.5509L22.1437 37.7715ZM23.7726 43.5238L23.009 40.8767H34.3609C34.5645 41.7421 34.6663 42.6075 34.7172 43.5238H23.7726Z" fill="#F5F5F5"/>
</svg>
